<svg id="Layer_1" data-name="Layer 1" xmlns="http://www.w3.org/2000/svg" viewBox="0 0 2267.04 1605.93"><defs><style>.cls-1{fill:#a9a9a9;}</style></defs><path class="cls-1" d="M2246.92,1054.32c-6.31-5.19-63.09-47.75-185.05-47.75-31.54,0-64.14,3.11-95.68,8.3-23.13-158.83-156.67-235.65-161.92-239.8l-32.6-18.69-21,30.11a441.23,441.23,0,0,0-57.83,132.88c-22.07,90.31-8.41,175.44,37.86,248.1-55.73,31.15-146.15,38.41-165.08,39.45H72.55c-38.91,0-70.45,31.14-70.45,69.55a1038.48,1038.48,0,0,0,65.19,378.9c51.52,132.88,128.28,231.5,227.11,291.71C405.85,2014.56,587.75,2053,792.78,2053a1547.64,1547.64,0,0,0,276.53-24.92A1150.77,1150.77,0,0,0,1431,1898.29,987.49,987.49,0,0,0,1677,1699c118.81-131.84,189.26-279.25,240.78-410h21c129.32,0,209.23-50.87,253.39-94.47,29.44-27,51.52-60.21,67.29-97.58l9.47-27Z" transform="translate(-1.96 -447.03)"/><path class="cls-1" d="M211.34,1164.35H411.11A17.61,17.61,0,0,0,429,1146.71V970.24a17.61,17.61,0,0,0-17.88-17.65H211.34a17.61,17.61,0,0,0-17.87,17.65v176.47c1.05,10.38,8.41,17.65,17.87,17.65Zm275.48,0H686.59a17.61,17.61,0,0,0,17.88-17.64V970.24a17.61,17.61,0,0,0-17.88-17.65H486.81a17.61,17.61,0,0,0-17.87,17.65v176.47c1.05,10.38,8.41,17.65,17.87,17.65m280.74,0H967.32a17.61,17.61,0,0,0,17.87-17.65V970.24a17.6,17.6,0,0,0-17.87-17.65H767.55a17.61,17.61,0,0,0-17.88,17.65v176.47C749.67,1157.09,757,1164.36,767.55,1164.36Zm276.52,0h199.78a17.61,17.61,0,0,0,17.87-17.65V970.24a17.6,17.6,0,0,0-17.87-17.65H1044.07a17.61,17.61,0,0,0-17.87,17.65v176.47A17.61,17.61,0,0,0,1044.07,1164.36ZM486.82,912.1H686.59c9.46,0,17.87-8.3,17.87-17.64V718a17.6,17.6,0,0,0-17.87-17.65H486.81A17.61,17.61,0,0,0,468.94,718V894.46c1.05,9.34,8.41,17.64,17.87,17.64m280.74,0H967.32c9.46,0,17.87-8.3,17.87-17.64V718a17.6,17.6,0,0,0-17.87-17.65H767.55A17.62,17.62,0,0,0,749.67,718V894.46a17.6,17.6,0,0,0,17.88,17.64m276.52,0h199.78c9.46,0,17.87-8.3,17.87-17.64V718c0-9.35-8.41-17.65-17.87-17.65H1044.07A17.61,17.61,0,0,0,1026.2,718V894.46c0,9.34,8.41,17.64,17.87,17.64m0-253.29h199.78a17.61,17.61,0,0,0,17.87-17.65V464.68c0-9.34-8.41-17.65-17.87-17.65H1044.07a17.61,17.61,0,0,0-17.87,17.65V641.16c0,9.34,8.41,17.65,17.87,17.65m278.63,505.55h199.78a17.61,17.61,0,0,0,17.87-17.65V970.24a17.6,17.6,0,0,0-17.87-17.65H1322.71a17.61,17.61,0,0,0-17.88,17.65v176.47c1.05,10.38,8.42,17.65,17.88,17.65" transform="translate(-1.96 -447.03)"/></svg>