<?xml version="1.0" encoding="utf-8"?>
<!-- Generator: Adobe Illustrator 25.2.3, SVG Export Plug-In . SVG Version: 6.00 Build 0)  -->
<svg version="1.1" id="Layer_1" xmlns="http://www.w3.org/2000/svg" xmlns:xlink="http://www.w3.org/1999/xlink" x="0px" y="0px"
	 viewBox="0 0 1823 2500" enable-background="new 0 0 1823 2500" xml:space="preserve">
<filter  filterUnits="objectBoundingBox" height="200%" id="d" width="200%" x="-50%" y="-50%">
	<feGaussianBlur  in="SourceAlpha" result="shadowBlurInner1" stdDeviation="3.5"></feGaussianBlur>
	<feOffset  dx="1" dy="-9" in="shadowBlurInner1" result="shadowOffsetInner1"></feOffset>
	<feComposite  in="shadowOffsetInner1" in2="SourceAlpha" k2="-1" k3="1" operator="arithmetic" result="shadowInnerInner1">
		</feComposite>
	<feColorMatrix  in="shadowInnerInner1" values="0 0 0 0 0 0 0 0 0 0 0 0 0 0 0 0 0 0 0.09 0"></feColorMatrix>
</filter>
<filter  filterUnits="objectBoundingBox" height="200%" id="b" width="200%" x="-50%" y="-50%">
	<feGaussianBlur  in="SourceAlpha" result="shadowBlurInner1" stdDeviation="17.5"></feGaussianBlur>
	<feOffset  in="shadowBlurInner1" result="shadowOffsetInner1"></feOffset>
	<feComposite  in="shadowOffsetInner1" in2="SourceAlpha" k2="-1" k3="1" operator="arithmetic" result="shadowInnerInner1">
		</feComposite>
	<feColorMatrix  in="shadowInnerInner1" values="0 0 0 0 0 0 0 0 0 0 0 0 0 0 0 0 0 0 0.06 0"></feColorMatrix>
</filter>
<path fill="#D3D3D3" d="M0,2015.5l15.1-21.2l715-1356.7l1.5-14.4l-315.2-592C390-18.3,315.7-5.8,307,49.7L0,2015.5z"/>
<g>
	<path id="a" fill-rule="evenodd" clip-rule="evenodd" fill="#A9A9A9" d="M8.9,1999.4l11.4-22.3L727.9,634.6L413.5,40.2
		C387.3-8.9,321,3.6,312.4,58.6L8.9,1999.4z"/>
</g>
<g filter="url(#b)">
	<path id="a_3_" d="M8.9,1999.4l11.4-22.3L727.9,634.6L413.5,40.2C387.3-8.9,321,3.6,312.4,58.6L8.9,1999.4z"/>
</g>
<path fill="#D3D3D3" d="M961.4,1071.1l234.7-240.3L961.3,382.7c-22.3-42.4-84.5-42.5-106.5,0L729.3,621.8v20.4L961.4,1071.1
	L961.4,1071.1z"/>
<g>
	<path id="c" fill-rule="evenodd" clip-rule="evenodd" fill="#A9A9A9" d="M957.2,1061.1l228.2-233.7L957.2,393
		c-21.7-41.2-74.3-45.6-95.7-4.2L735.4,631.7l-3.8,12.4L957.2,1061.1z"/>
</g>
<g filter="url(#d)">
	<path id="c_3_" d="M957.2,1061.1l228.2-233.7L957.2,393c-21.7-41.2-74.3-45.6-95.7-4.2L735.4,631.7l-3.8,12.4L957.2,1061.1z"/>
</g>
<path fill="#808080" d="M0,2015.5l6.9-6.9l24.9-10.1L946.6,1087l11.6-31.6L730,620.5L0,2015.5z"/>
<path fill="#D3D3D3" d="M990.7,2475.2l828-461.8L1582.3,557.2c-7.4-45.6-63.3-63.6-95.9-30.9L0,2015.5l823.3,459.7
	C875.3,2504.2,938.7,2504.2,990.7,2475.2"/>
<path fill="#D3D3D3" d="M1811.3,2009.5L1576.6,564.4c-7.3-45.2-53.8-63.9-86.2-31.5L9.2,2012.7l814.2,455.1
	c51.6,28.8,114.5,28.8,166.2,0L1811.3,2009.5L1811.3,2009.5z"/>
<path fill="#D3D3D3" d="M990.7,2461.6c-52,29-115.4,29-167.4,0l-816.6-453l-6.6,7l823.2,459.7c52,29,115.4,29.1,167.4,0l828-461.8
	l-2-12.5L990.7,2461.6L990.7,2461.6z"/>
</svg>
