<?xml version="1.0" encoding="UTF-8"?><svg id="Layer_1" xmlns="http://www.w3.org/2000/svg" viewBox="0 0 122.54 145.73"><path d="M.83.84h121.09v45.75c0,20.91-7.87,65.41-60.03,98.53,0,0-56.72-23.6-61.06-98.53V.84Z" style="fill:#a51c30; stroke-width:0px;"/><path d="M40.64,73.01c-.3-.01-.57.14-.78.32-.41.36-.66.86-.68.88-.46.65-1.43.81-2.32.78-.88-.03-1.64-.23-1.64-.23h-.05s-.05,0-.05,0c-1.27.42-1.83.96-2.07,1.43-.12.23-.15.44-.15.59,0,.12.02.17.02.21v4.74c-.05.26-.17.42-.34.53-.17.11-.4.17-.63.2-.46.05-.9-.05-.9-.05h0c-1.59-.32-2.68.05-3.36.52-.67.46-.94.98-.95,1-.68.92-.23,2.22-.23,2.22h0c.04.13.1.24.15.34,0,0,0,.02,0,.02.62,1.66,2.9,1.65,2.9,1.65.83.62,2.28.21,2.28.21.43,0,.67.18.82.4.08.31.04.61.04.61v.04s0,.03,0,.03c.01.06.04.34.06.74.01.39.02.91.02,1.51,0,1.2,0,2.73,0,4.23-.03,3-.08,5.9-.08,5.9,0,1.01-.2,1.61-.2,1.61v.02s0,.03,0,.03c0,.05-.02.08-.07.12-.06.04-.16.09-.29.13-.26.07-.64.1-1.02.1-.76,0-1.53-.1-1.53-.1h-.02s-.02,0-.02,0c-2.16.22-2.82,2.15-2.83,2.17h0c-.17.41-.16.81-.04,1.18.06.18.14.36.24.53.38.94,1.41,1.67,1.41,1.67,0,.41,3.93.62,3.93.62.24.06.4.23.52.43.01.04.03.07.04.11.1.36.1.7.1.7-.03.11-.04.23-.05.41,0,.2-.01.45,0,.73,0,.56.04,1.24.08,1.9.08,1.32.18,2.56.18,2.56h0v.02c.02.13.09.25.17.35,0,0,0,.04,0,.04.21,1.24,4.14.83,4.14.83,0,0,13.78-.32,17.51-.26.53,0,.86.03.91.05.41,0,1.45-.21,1.45-.21l1.45,1.04c.58.45,1.19.58,1.74.55.11,0,.22-.02.33-.04,1.06-.19,1.87-.92,1.87-.92l2.07-.41c.41,0,17.18-.21,17.18-.21,1.45.41,2.07-.21,2.07-.21l2.69-.21c.1,0,.2,0,.29-.02.66-.12,1-.65,1.17-1.16.05-.1.11-.2.15-.31.22-.6.21-1.2.21-1.2v-3.5c.03-.28.1-.49.17-.69.38-.67.91-.78.91-.78l2.48-.42,1.25-.62c.48-.12.73-.45.87-.86.04-.06.08-.11.11-.17.17-.36.22-.79.22-1.19,0-.81-.21-1.55-.21-1.55v-.02s0-.02,0-.02c-.45-.91-1.5-1.28-2.4-1.44-.9-.16-1.7-.11-1.7-.11h0c-1,.1-1.37-.19-1.54-.46-.17-.28-.13-.58-.13-.58h0s.21-12.84.21-12.84c.08-.48.22-.86.36-1.18.16-.31.3-.5.3-.5.62.21,2.69-.42,2.69-.42,1.19-.12,1.68-.85,1.9-1.45.02-.04.05-.07.06-.11.27-.57.27-1.1.27-1.12.11-.81-.45-1.48-1.01-1.94-.56-.46-1.15-.72-1.15-.72l-.03-.02h-2.91c-.08-.02-.15-.06-.21-.15-.07-.09-.14-.23-.19-.4-.1-.33-.14-.78-.16-1.23-.03-.89.08-1.76.08-1.76h0v-1.68c0-.81-.57-1.37-1.12-1.72s-1.08-.51-1.08-.51h-.02s-3.69,0-3.69,0c-.08-.14-.18-.27-.32-.36-.18-.12-.4-.21-.6-.27-.41-.14-.78-.19-.78-.19-.67-.21-1.68-.21-1.68-.21h-.05l-.04.03c-1.29.89-3.55,1.27-5.48,1.39-1.93.13-3.52.03-3.52.03l-6.49-.42-.06.05s-.02.01-.09.04c-.07.02-.16.05-.27.07-.22.05-.49.09-.76.13-.54.08-1.06.13-1.06.13h-.11s-.04.11-.04.11c-.18.54-.72.72-.72.72l-.57.19c-.38-.32-.97-.57-1.53-.74-.59-.18-1.08-.28-1.1-.28,0,0,0,0-.01,0-.02,0-.04-.01-.06-.02-.03,0-.07-.01-.11-.02-.08,0-.19-.01-.33-.01-.27,0-.63,0-1.07.02-.87.03-2,.08-3.13.15-2.25.13-4.47.29-4.48.29-2.57.1-4.3-.31-5.39-.74-1.09-.43-1.52-.87-1.52-.87-.27-.37-.58-.55-.87-.57h0ZM40.63,73.34c.18,0,.39.11.63.44h0s0,.02,0,.02c0,0,.5.49,1.64.94,1.14.45,2.92.87,5.53.76h.01s2.22-.16,4.47-.29c1.12-.06,2.26-.12,3.12-.15.43-.01.8-.02,1.06-.02.13,0,.23,0,.3.01.03,0,.05,0,.06,0h0s.05.02.05.02c0,0,.51.1,1.1.28.59.18,1.25.45,1.51.71l.07.07.72-.24s.44-.26.74-.71c-.23.56-.8.75-.8.75l-.62.42c-.62-.62-2.69-1.04-2.69-1.04-.21-.21-9.11.41-9.11.41-5.17.21-7.04-1.65-7.04-1.65-1.03-1.45-2.07.62-2.07.62-1.03,1.45-4.14.62-4.14.62-1.15.38-1.66.85-1.9,1.25.02-.07.04-.15.08-.24.18-.36.66-.84,1.85-1.25.07.02.76.2,1.65.23.93.03,2.03-.12,2.6-.93h0s0-.02,0-.02c0,0,.25-.5.6-.8.18-.15.36-.25.55-.24h0ZM79.53,73.66c.07,0,1.01.01,1.56.19h.02s.01,0,.01,0c0,0,.35.05.72.17.19.06.38.14.52.23.02.01.04.03.06.05-.5-.31-1.28-.42-1.28-.42-.62-.21-1.66-.21-1.66-.21-2.69,1.86-9.11,1.45-9.11,1.45l-6.42-.42c-.2.2-2.21.41-2.25.41,0-.01.02-.03.03-.04.03,0,.5-.05,1.04-.13.27-.04.55-.08.78-.13.12-.03.22-.05.3-.08.05-.02.09-.04.13-.06l6.38.41s1.62.11,3.57-.02c1.93-.13,4.19-.47,5.6-1.42h0ZM82.78,74.69h3.72s.31.12.65.3c-.35-.17-.62-.26-.62-.26h-3.73s-.01-.02-.02-.04h0ZM87.22,75.02c.09.05.16.07.25.13.03.02.05.04.07.06-.11-.07-.22-.13-.33-.19h0ZM88.69,81.73s.04.08.07.12c.11.14.25.25.42.28h.02s2.87,0,2.87,0c.02.01.54.25,1.05.66.36.29.67.65.82,1.06-.37-.6-1.05-1.05-1.47-1.29-.21-.12-.36-.18-.36-.18h-2.89c-.25-.05-.42-.3-.53-.65h0ZM33.02,82.36c-.52.98-1.97.64-1.97.64-3.1-.62-4.14,1.45-4.14,1.45-.03.04-.04.08-.07.12.05-.15.11-.3.21-.43l.02-.02s.24-.48.85-.89c.61-.42,1.59-.77,3.1-.46,0,0,.48.11,1.01.05.26-.03.54-.09.78-.25.08-.05.15-.12.21-.19h0ZM88.42,102.86c.25.38.79.71,1.84.6,0,0,.76-.05,1.62.1.85.15,1.77.5,2.15,1.25,0,0,.02.11.03.14-.97-1.43-3.81-1.25-3.81-1.25-1.35.14-1.73-.43-1.83-.84h0ZM32.73,103.83s-.02.08-.02.08c0,.1-.05.19-.13.26-.08.07-.21.12-.35.16-.87.23-2.62,0-2.62,0-1.5.15-2.23,1.16-2.53,1.71,0,0,.58-1.75,2.54-1.95.04,0,.77.1,1.54.1.4,0,.79-.02,1.11-.11.16-.04.3-.1.42-.19.02-.01.03-.04.04-.05h0ZM47.15,15.55l-.06.05c-3.23,2.62-7.92,1.42-7.92,1.42h-.02s-.02,0-.02,0c-4.56,0-6.03.21-6.03.21h-.06s-.04.06-.04.06c-.47.57-1.05.56-1.56.41-.5-.14-.87-.42-.89-.43-.09-.14-.24-.21-.4-.27-.18-.06-.39-.1-.59-.13-.4-.05-.77-.06-.77-.06h-.01c-4.54.31-7.38.05-9.06-.28-.84-.17-1.4-.35-1.75-.49-.34-.14-.46-.23-.46-.23l.02.02c-.07-.07-.13-.09-.21-.11-.08-.02-.17-.04-.26-.06-.19-.03-.42-.05-.65-.06-.45-.03-.87-.03-.87-.03h-.11l-.05.09c-.18.36-.74,1.12-.78,1.17-.03,0-.08.02-.18.04-.12.01-.27.02-.44.03-.34.01-.77,0-1.18,0-.82-.03-1.6-.08-1.6-.08h0s0,0,0,0c-.86,0-1.38.28-1.67.57-.29.29-.36.6-.36.6h0s-.21,3.97-.21,3.97h0c.1,1.24-.02,1.74-.11,1.87-.04.07-.04.05-.04.05l-.14-.09-.1.14c-.05.08-.26.19-.55.25-.29.06-.66.1-1.01.11-.71.03-1.38-.02-1.38-.02h-.02s-.02,0-.02,0c-.56.06-.98.33-1.28.7-.29.37-.47.82-.58,1.27-.21.88-.16,1.73-.16,1.73v.02c.11.56.43.96.83,1.21.4.25.88.37,1.33.43.89.1,1.67-.04,1.71-.05h0c1.1.1,1.5.44,1.65.72.15.27.06.51.06.51v.02s0,.03,0,.03c0,.43.05,3.83.11,7.14.05,3.3.1,6.47.1,6.5-.05.44-.17.72-.31.89-.14.17-.3.25-.46.28-.33.07-.65-.06-.65-.06l-.03-.02h-.03c-2.32,0-3.38.81-3.82,1.64-.44.83-.28,1.65-.27,1.66.11,1.5,1.06,2.2,1.95,2.47.9.27,1.75.16,1.75.16h-.02c1.11,0,1.56.3,1.75.55.19.26.15.49.15.49v.05s.02.05.02.05c0-.01.02.11.03.26,0,.16.01.37,0,.61,0,.48-.04,1.09-.08,1.68-.08,1.19-.18,2.32-.18,2.32v.04c.22,1.19.91,1.68,1.53,1.82.57.13,1.05,0,1.12-.02h0l16.52.42c2.36,1.72,3.88,1.77,4.79,1.3.87-.45,1.1-1.25,1.13-1.35l.29.04c.18.03.55.05,1.08.06.53.01,1.22.02,2.01.03,1.58.01,3.57,0,5.54,0,1.97-.01,3.91-.03,5.39-.05,1.47-.02,2.47-.03,2.57-.03h.01c.68.15,1.21.12,1.62-.04.42-.16.7-.44.88-.74.36-.59.36-1.24.36-1.25h0s.21-4.94.21-4.94c.08-.32.44-.56.8-.71.35-.14.67-.19.7-.19,2.3.3,3.42-.51,3.92-1.41.49-.9.38-1.87.38-1.88h0c-.11-1.51-1-2.25-1.84-2.58-.84-.33-1.65-.27-1.65-.27h.01c-1.1,0-1.6-.39-1.86-.76-.25-.37-.25-.72-.25-.73h0c.06-.36.09-1.26.12-2.47.03-1.22.05-2.74.06-4.21.03-2.95.03-5.74.03-5.74,0-.25.14-.66.3-.99.13-.29.23-.45.26-.51,1.27.13,2.25.05,2.93-.19.71-.25,1.15-.67,1.4-1.1.5-.86.28-1.76.27-1.78.09-.78-.02-1.37-.3-1.77-.28-.42-.69-.65-1.11-.78-.8-.24-1.6-.09-1.65-.08-1.42,0-1.9-.39-2.07-.74-.17-.34-.04-.69-.04-.69v-.02s0-.02,0-.02c.31-1.98.21-3.35.02-4.23-.19-.88-.47-1.28-.47-1.28l-.02-.02-.03-.02c-.21-.14-.52-.19-.89-.23-.37-.04-.8-.05-1.2-.05-.81,0-1.54.05-1.54.05h-.05s-.04.03-.04.03c-.15.11-.31.1-.53-.01-.22-.11-.47-.32-.7-.56-.45-.48-.81-1.03-.81-1.03l-.04-.06-1.19-.24ZM105.73,15.55l-.06.05c-3.23,2.62-7.92,1.42-7.92,1.42h-.02s-.02,0-.02,0c-4.35,0-5.82.21-5.82.21h-.06s-.04.06-.04.06c-.47.57-1.05.56-1.56.41-.49-.14-.86-.41-.89-.43-.09-.14-.24-.22-.41-.27-.18-.06-.39-.1-.59-.13-.4-.05-.77-.06-.77-.06h-.01c-4.54.31-7.38.05-9.06-.28-.84-.17-1.4-.35-1.75-.49-.34-.14-.46-.23-.46-.23l.02.02c-.07-.07-.13-.09-.21-.11-.08-.02-.16-.04-.26-.06-.19-.03-.43-.05-.65-.06-.45-.03-.86-.03-.86-.03h-.11l-.05.09c-.18.36-.74,1.12-.78,1.18-.03,0-.08.02-.18.03-.12.01-.26.02-.44.03-.34.01-.77,0-1.18,0-.82-.03-1.6-.08-1.6-.08h0s0,0,0,0c-.96,0-1.53.27-1.85.56-.32.29-.39.61-.39.61v4.19c.1,1.12-.03,1.57-.1,1.67-.04.05-.03.03-.04.03,0,0-.01,0-.01,0l-.14-.09-.1.14c-.05.08-.26.19-.55.25-.29.06-.66.1-1.02.11-.71.03-1.38-.02-1.38-.02h-.01s-.02,0-.02,0c-.61.06-1.07.32-1.39.69-.33.37-.52.83-.64,1.27-.24.89-.19,1.74-.19,1.74h0s0,.02,0,.02c.11.56.43.96.83,1.21.4.25.87.37,1.33.43.89.1,1.67-.04,1.71-.05h0c1.1.1,1.5.44,1.65.72.15.27.07.51.07.51h0c-.04.17-.05.44-.06.87-.01.43-.02,1.01-.03,1.67,0,1.32,0,3.01,0,4.66.03,3.3.08,6.47.08,6.5-.05.44-.17.72-.31.89-.14.17-.3.25-.46.28-.33.07-.65-.06-.65-.06l-.03-.02h-.04c-2.32,0-3.38.81-3.82,1.64-.44.83-.28,1.65-.27,1.66.11,1.5,1.06,2.2,1.95,2.47.9.27,1.75.16,1.75.16h-.02c1,0,1.45.29,1.68.56.22.27.22.51.22.51v.04l.02.04s.02.11.03.26c0,.16,0,.37,0,.61,0,.48-.04,1.09-.08,1.68-.08,1.19-.18,2.32-.18,2.32v.02s0,.02,0,.02c.22,1.19.91,1.68,1.53,1.82.57.13,1.05,0,1.12-.02h0l16.52.42c2.36,1.72,3.88,1.77,4.79,1.3.88-.45,1.16-1.31,1.19-1.39h0c.07-.15.23-.21.31-.21.04,0,.04,0,.03,0,0-.01,0,0-.03.07l-.1.21.23.04c.18.03.55.05,1.08.06.53.01,1.22.02,2.01.03,1.58.01,3.57,0,5.54,0,1.97-.01,3.91-.03,5.38-.05,1.47-.02,2.5-.03,2.59-.03.73.15,1.28.11,1.7-.04.43-.16.71-.44.88-.74.34-.6.28-1.27.28-1.27v.02s.21-4.94.21-4.94c.08-.32.43-.56.8-.71.36-.14.68-.18.7-.19,2.3.3,3.42-.51,3.92-1.42.49-.9.38-1.87.38-1.88h0c-.11-1.51-1-2.26-1.84-2.58-.84-.33-1.65-.27-1.65-.27h.02c-1.2,0-1.7-.39-1.92-.75-.23-.36-.18-.72-.18-.72v-.02c0-1.22.21-12.42.21-12.42h0c0-.26.14-.67.3-.99.13-.29.24-.45.27-.51,1.27.13,2.25.05,2.93-.19.71-.25,1.15-.67,1.4-1.1.5-.86.28-1.76.27-1.78.09-.78-.03-1.37-.3-1.77-.28-.42-.69-.65-1.11-.78-.81-.24-1.61-.09-1.65-.08-1.42,0-1.9-.39-2.07-.74-.17-.34-.04-.69-.04-.69v-.03c.32-1.98.22-3.35.03-4.23-.19-.88-.47-1.28-.47-1.28l-.02-.02-.02-.02c-.21-.14-.52-.19-.89-.23-.37-.04-.8-.05-1.2-.05-.81,0-1.54.05-1.54.05h-.05s-.04.03-.04.03c-.15.11-.3.1-.53-.01-.22-.11-.47-.32-.7-.56-.45-.48-.8-1.03-.8-1.03l-.04-.06-1.19-.24Z" style="stroke-width:0px;"/><path d="M61.68,145.73l-.41-.21c-.41-.21-56.92-24.63-61.27-98.94V0h122.54v46.37c0,18.22-5.8,64.58-60.44,98.94l-.41.41ZM1.45,1.45v44.92c4.14,70.38,55.47,95.63,60.24,97.7,53.61-34.15,59.41-79.69,59.41-97.7V1.45H1.45Z" style="stroke-width:0px;"/><path d="M18.21,17.4s-1.24,0-1.03.83l-.41,31.46s0,1.45,2.28,1.66c0,0,2.9.21,3.52,0h6.63s1.24,1.24,1.24-.21c0,0,.83-25.46.41-30.84,0,0,0-2.28-1.86-2.28,0,0-7.45.62-8.07,0l-2.69-.62ZM46.95,17.44c-.27-.02-.71.05-1.41.36,0,0,.21.83-9.1.42-.21,0-3.73,0-3.93,1.45,0,0-.21,14.9-.21,15.32l-.21,12.42-.21,4.35s.62.83,1.03.21c0,0,3.1-.83,5.17-.41,0,0,6.21.62,7.66-.42,0,0,1.03.41,1.24-1.03,0,0,.41-27.53.21-27.94,0,0,.41-3.93.21-4.35,0,0,0-.32-.45-.36h0ZM12.82,18.22c-.41.01-1,.27-1.85,1.04l-.21,4.14s0,2.28-2.07,2.07c0,0-2.28,0-3.52,1.03,0,0-.62,2.07,1.66,1.86,0,0,3.52,0,3.73,1.45l-.21,14.9s.83,2.49-1.86,2.49c0,0-3.32-.21-3.32,1.86,0,0,.62,1.66,3.52,1.25,0,0,2.07.41,1.86,2.28v3.72s-.21,1.45,1.86,1.66h15.32s.83,0,.83-.83c0,0,0-.83-1.24-.83l-12.63-.41s-2.07.62-2.28-2.48c0,0,.2-26.58.21-27.75,0,0,0,.01,0,.01,0,0,0-.1,0-.11,0-.01,0-.3,0-.31,0,0,0,0,0-.02-.02-1.02-.03-4.62,1.04-6.4,0,0-.16-.65-.84-.63h0ZM52.02,18.29c-.89.08-.89,1.17-.89,1.17.41.41.62,1.86.62,1.86.21,3.31,0,7.04,0,10.56-.21,11.8-.62,22.56-.62,22.56,0,2.28-1.24,1.65-1.24,1.65h-13.67c-1.45,0-1.45.83-1.45.83.21,1.24,1.45.83,1.45.83,1.24.21,14.91,0,14.91,0,2.07.21,1.86-2.49,1.86-2.49.21-4.76.62-5.17.62-5.17.41-.21,2.69-.21,2.69-.21,3.73.21,2.07-2.28,2.07-2.28-.41-.62-2.9-.62-2.9-.62-2.28.21-2.07-2.28-2.07-2.28l.21-14.28c-.41-1.24.62-1.86.62-1.86h2.28c3.1.21,2.28-1.86,2.28-1.86,0-1.03-2.69-1.45-2.69-1.45-2.48.41-2.28-1.03-2.28-1.03v-3.52c.41-2.28-1.03-2.28-1.03-2.28-.31-.12-.56-.16-.76-.14h0ZM49.09,18.75c-.26.04-.55.25-.87.71v31.05s.83,2.69,2.07,2.48c0,0,.21-.62.21-1.65l.42-29.6s-.68-3.14-1.83-2.99h0ZM15.73,19.05c-1.86,0-2.07,3.52-2.07,3.52l-.21,29.39c.21,1.45.62,1.24.62,1.24,1.86-1.24,1.66-3.31,1.66-3.31,0,0,.21-27.94.21-28.36s-.21-2.49-.21-2.49h0ZM16.59,52.16c-.09,0-.19.02-.29.05-.41.12-.92.47-1.35,1.33v.02s-.01.02-.01.02c0,0-.12.39-.03.76.05.19.17.39.39.49.21.1.49.1.86,0h10.11l2.71.63h.04s.19-.05.43-.14c.24-.09.53-.22.74-.43.11-.11.2-.24.23-.4.04-.16.02-.34-.06-.51-.16-.35-.55-.71-1.29-1.13l-.04-.02h-9.76s-.46-.1-.96-.23c-.51-.13-1.1-.3-1.26-.38h0s0,0,0,0c0,0-.18-.07-.44-.06h0ZM47.35,52.7c-.58-.03-1.39.09-1.39.09-1.66,1.03-11.39.21-11.39.21-.62,0-1.45,1.03-1.45,1.03-.21,1.86,2.9,1.04,2.69,1.04h11.59c1.86.41,1.86-.41,1.86-.41,0-.62-1.45-1.86-1.45-1.86-.1-.05-.27-.08-.47-.09h0ZM32.03,55.02c-.05,0-.11.02-.16.04,0,0-1.86,0-1.86,2.49,0,0,.21,1.86,2.07,1.86,0,0,1.66-.41,1.66-2.28,0,0-.91-2.18-1.71-2.11h0ZM76.59,17.39s-1.24,0-1.04.83l-.41,31.46s0,1.45,2.28,1.66c0,0,2.9.21,3.52,0h6.62s1.24,1.24,1.24-.42c0,0,.83-25.46.42-30.84,0,0,0-2.28-1.86-2.28,0,0-7.45.62-8.07,0l-2.69-.41ZM105.24,17.65c-.24.01-.6.11-1.12.36,0,0,.21.83-9.11.42-.21,0-3.93-.21-3.93,1.45,0,0-.21,14.9-.21,15.32l-.21,12.42-.41,4.35s.62.83,1.04.21c0,0,3.1-.83,5.17-.41,0,0,6.21.62,7.66-.41,0,0,1.03.41,1.24-1.03,0,0,.41-27.53.21-27.94,0,0,.42-3.94.21-4.35,0,0,0-.39-.54-.36h0ZM70.99,18.22c-.41.01-1,.27-1.85,1.04v3.93s0,2.28-2.07,2.07c0,0-2.28,0-3.52,1.03,0,0-.62,2.07,1.65,1.86,0,0,3.52,0,3.73,1.45l-.21,14.9s.83,2.48-2.07,2.48c0,0-3.31-.21-3.31,1.86,0,0,.62,1.66,3.52,1.24,0,0,2.07.42,2.07,2.28v3.72s-.21,1.45,1.66,1.66h15.31s.83,0,.83-.83c0,0,0-.83-1.24-.83l-12.42-.21s-2.07.62-2.28-2.48c0,0,.21-27.74,0-28.15v.42s-.21-4.76,1.04-6.83c0,0-.16-.65-.84-.63h0ZM110.39,18.29c-.89.08-.89,1.17-.89,1.17.21.41.62,1.86.62,1.86.21,3.31,0,7.04,0,10.56-.21,11.8-.62,22.56-.62,22.56,0,2.28-1.24,1.65-1.24,1.65h-13.66c-1.45,0-1.45.83-1.45.83.21,1.24,1.66.83,1.66.62,1.24.21,14.9,0,14.9,0,2.07.21,1.86-2.49,1.86-2.49.21-4.76.62-5.17.62-5.17.41-.21,2.69-.21,2.69-.21,3.52.21,1.86-2.28,1.86-2.28-.41-.62-2.9-.62-2.9-.62-2.28.21-2.07-2.28-2.07-2.28l.21-14.28c-.41-1.24.62-1.86.62-1.86h2.28c3.1.21,2.28-1.86,2.28-1.86,0-1.03-2.69-1.45-2.69-1.45-2.48.41-2.28-1.03-2.28-1.03v-3.31c.41-2.28-1.04-2.28-1.04-2.28-.31-.12-.56-.16-.77-.14h0ZM107.47,18.83c-.26.02-.55.21-.87.63v31.05s.83,2.69,2.07,2.48c0,0,.21-.62.21-1.65l.41-29.6s-.68-3-1.83-2.91h0ZM74.1,19.05c-1.86,0-2.07,3.52-2.07,3.52l-.21,29.39c.21,1.45.62,1.24.62,1.24,1.86-1.24,1.66-3.31,1.66-3.31,0,0,.21-27.94.21-28.36s-.21-2.49-.21-2.49h0ZM75.29,52.12c-.36-.01-1.03.15-1.6,1.29,0,0-.41,1.45,1.04,1.03h10.14l2.69.62s2.9-.62,0-2.28h-9.73s-1.87-.42-2.28-.62c0,0-.1-.04-.26-.04h0ZM105.83,52.49c-.53.01-1.09.09-1.09.09-1.66,1.03-11.39.21-11.39.21-.62,0-1.45,1.03-1.45,1.03-.41,1.86,2.69,1.03,2.69,1.03h11.59c1.86.41,1.86-.41,1.86-.41,0-.62-1.45-1.86-1.45-1.86-.16-.08-.45-.1-.77-.09h0ZM90.62,54.82c-.05,0-.11.02-.16.04,0,0-1.86,0-1.66,2.48,0,0,.21,1.86,2.07,1.86,0,0,1.66-.21,1.66-2.28,0,0-1.09-2.18-1.91-2.11h0ZM59.82,95.02s0,2.28-.21,4.55c-.21,1.24.41,7.04,0,9.94,0,0,0,1.04-2.07.21,0,0-12.63.21-12.83-.21,0,0-3.52.21-3.73-1.66,0,0,.41-13.46.21-13.87,0,0-.21-7.24,0-8.07,0,0,.21-6.83,0-7.66,0,0,0-1.66-.21-2.28,0,0,0-1.04,1.66-.41,0,0,.62,1.04,3.73.62,0,0,2.28.41,4.55,0,0,0,4.97-.41,6.21,0,0,0,2.07-.41,2.48,1.86v6l.62,2.07.62-.41.21-1.45v-6.42s.41-1.24,2.07-1.45c0,0,2.48-.21,2.9,0s5.8.41,7.24.21c1.45-.21,1.66,1.04,6.21-1.24,0,0,1.24,0,1.24.83,0,0-.41,8.28,0,9.94,0,0,0,15.32-.41,16.35l.21,4.97s.21,2.07-3.31,2.28c0,0,2.07.21-11.39-.21,0,0-2.07-.21-4.55,1.04,0,0-.41-.21-.41-1.45,0,0,.41-4.55,0-9.11l-.21-4.97h-.83ZM81.56,108.47s1.24,2.28,1.66,2.48c0,0,1.04,1.24.83-1.04l.21-28.36s-.21-1.04,0-2.48l-1.24-2.07s-1.24-1.04-1.24.62v30.01l-.21.83ZM40.36,109.71s1.45,1.45,3.73,1.45l13.25.21s1.45.21,1.45.83c0,0-.21,1.24-2.07.83l-16.15-.21-1.86.21s-1.24-.21.62-2.48l1.04-.83ZM37.47,77.22s-1.24,2.07-1.03,2.69v32.71s-.21,2.28,1.66,1.66c0,0,17.18-.41,18.42,0,0,0,1.66.21,1.04,1.04,0,0,0,.62-1.04.41,0,0-8.07.83-15.53.41,0,0-4.97.21-5.17-.21,0,0-.83-.21-.83-2.9,0,0,0-2.69-.21-3.1,0,0,.21-1.45-2.28-1.66,0,0-3.52.62-3.52-1.45,0,0,.41-1.45,3.93-1.24,0,0,2.48.41,1.86-1.66l.21-14.49s.41-2.48-1.45-2.69h-2.07s-2.9,0-2.69-1.66c0,0,1.03-1.66,3.93-1.45,0,0,2.07.41,2.28-2.07,0,0,0-4.97,1.03-5.17-.21,0,2.28.21,1.45.83M39.12,77.01s.62,0,.62,1.24l-.21,29.6s.21,1.86-1.45,3.31c0,0-.83,1.04-.83-.62l.41-30.22s0-2.28,1.45-3.31M62.31,111.78s1.66-1.24,2.48-1.04c0,0,8.9.62,11.59.21,2.69-.41,1.04-.21,1.04-.21,0,0,2.28,0,3.1-.83,0,0,.62-.21,1.04.41l1.45,1.66s0,1.04-1.66.83c0,0-15.94,0-16.56.21.21,0-2.69.41-2.48-1.24M63.34,114.48s1.24-.62,2.07-.41c.83.21,12.21-.21,12.21-.21,0,0,4.97.41,5.8-.41l1.24-.41s.41-.62.41-1.45v-3.52l.21-1.04v-27.12s.41-2.07-.83-3.31c0,0,0-.83.41-.62.41.21.21,0,.21,0,0,0,1.66-.41,2.07.21,0,0,.83,2.28,0,3.73,0,0-.21,2.9,1.24,2.9,0,0,.62.62,1.66.21,0,0,2.48.21,2.48,1.04,0,0,0,1.86-1.66,1.45l-2.28.21s-1.66.41-1.45,2.07c.21,1.86,0,15.32,0,15.32,0,0,0,1.66,2.48,1.45,0,0,3.1-.21,3.1.83,0,0,.83,1.86-1.45,2.07,0,0-4.14-.21-3.73,1.04,0,0-.21,2.69-.41,3.31,0,0,.41,2.28,0,2.69,0,0-.21,1.24-2.9,1.04,0,0-16.77,0-19.46.21-.21.41-1.86.21-1.45-1.24M60.44,112.61s1.66.21,1.66,1.86,0,2.48-.83,2.69c-1.04.21-2.07-.21-2.28-1.45-.41-1.24,0-2.69,1.45-3.1" style="fill:#fff; stroke-width:0px;"/><path d="M29.6,28.78l-.83,1.86s-2.07,9.52-3.31,11.38c0,0-.21,2.07-1.86.41,0,0-3.93-12.01-4.14-12.42l-1.24-.83s-.83-1.03.62-1.24h3.73s1.24,1.03-.41,2.07c0,0,.21,1.66,2.28,7.66,0,0,.62,2.28,1.24.62l2.07-7.04-.62-2.07s-.62-1.03.21-1.03c0,0,2.07-.21,2.28.62M35.19,30.43v10.35l-.21.83s-1.03,1.24-.21,1.45c0,0-.83.62,6.21.62,0,0,2.69.41,2.07-3.1,0,0-.21-1.24-1.24.62,0,0-.21,1.66-3.93,1.03,0,0-.83-.62-.83-1.45v-4.35s0-1.03,1.66-1.03c0,0,1.86,1.24,2.07.62,0,0,.62-1.66,0-2.48,0,0-.83,0-1.03.21,0,0-.62,1.24-2.28.41,0,0-.83-1.66-.21-2.9,0,0-.21-2.48,1.45-2.28,0,0,2.07.41,2.07,1.03,0,0,.41,1.24,1.03-.21l-.41-1.45s-.21-.62-.83-.41c0,0-3.31.41-3.73,0l-2.69.21s-.41,1.03.83,1.45c0,.21.21.41.21.83M94.6,28.78c-.21-.83,1.66-.83,1.66-.83l1.04.21c.62,0,1.45.21,1.45.21.62,1.03-.41,1.66-.41,1.66l-.41,1.24v10.35c.21.41,1.04,1.45,1.04,1.45,0,.83-1.04.62-1.04.62h-2.9c-.83,0-.62-1.03-.62-1.03,1.04-.41,1.24-2.28,1.24-2.28v-9.73l-1.04-1.86ZM81.35,37.88l-.21,3.1.83,1.45c.62.83-.41,1.45-.41,1.45l-3.1-.41c-.62-.21,0-1.24,0-1.24.83-.41.83-1.66.83-1.66v-9.94c0-.41-.83-1.45-.83-1.45-.62,0-.41-1.03-.41-1.03.21-.41,1.86-.21,1.86-.21h4.14c3.93,1.24,3.31,4.14,3.31,4.14.21,2.9-2.69,3.93-2.69,3.93l-.21,1.66,2.9,4.55c.41.41.41.83.41.83-.41,1.03-2.07,0-2.07,0l-3.52-5.59c-.41-.41-.83.41-.83.41M81.35,30.02v5.17c1.86,1.45,2.9-.62,2.9-.62,2.48-2.28,0-4.55-.41-5.17-.41-.62-2.28,0-2.28,0l-.21.62ZM51.13,87.98s.21,7.24,0,8.28v1.66s.41,1.04,1.03,1.45c0,0,.41,1.45-.62,1.24,0,0-2.48-.21-3.1,0,0,0-1.45,0,0-1.66,0,0,.41-.62.41-2.48,0,0,0-8.28.21-8.69,0,0,.21-1.04-.41-1.45h-1.24l-1.45,1.45s-.41,1.45-1.03,0v-.83l.83-2.28h.62s.83.62,1.66.83h4.55l1.66-.83s.62,0,.41,1.04c0,0,.21,2.28-1.03,2.48,0,0-.83-.21-1.24-1.45,0-.21-1.24-1.04-1.24,1.24M72.66,85.29s-3.73-.41-3.73,3.73c0,0-.41,2.69,3.73,4.55,0,0,3.1,1.45,2.9,3.31,0,0-.41,3.31-3.73,1.66,0,0-1.66-.83-1.45-1.66,0,0-.41-1.04-1.04-.83,0,0-.62.21-.41,3.52,0,0,0,1.24,1.45,0l.83.21s2.69,2.07,4.97-.41c0,0,2.48-2.28.62-4.97,0,0-1.24-2.07-3.52-2.9,0,0-2.07-1.04-2.69-2.69,0,0,.62-2.9,3.31-1.45,0,0,1.04,1.24,1.66,1.45,0,0,.83,0,.62-1.86l-.21-1.45s-.21-1.04-1.66,0c0-.21-1.24.41-1.66-.21M60.86,83.22c.62.41.83,1.45.83,1.45,2.07,5.17,3.73,12.83,3.73,12.83.41,1.04,1.45,1.66,1.45,1.66,1.66.62,0,1.04,0,1.04-.62.21-2.9,0-2.9,0-1.24-.21-.62-.62-.62-.62.41-.41,0-2.48,0-2.48,0-.83-1.04-2.07-1.04-2.07-.41-.21-1.04.62-1.04.62,0,0-1.04.41-1.24,0s-.83-.83-.83-.83c-1.24,0-1.66,2.9-1.66,2.9.62,2.48,0,2.07,0,2.07-.62.83-2.48.21-2.48.21-.83-.21-.21-.83-.21-.83,1.04-.21,1.45-1.45,1.45-1.45.41-.62,3.73-13.46,3.73-13.46-.21-.21,0-1.45.83-1.04M59.2,89.84c0,.41-.83,3.31-.83,3.31l.62,1.04h2.07c.41,0,.62-.41.62-1.04,0-.41-1.04-3.52-1.04-3.52l-.41-.62-1.03.83Z" style="stroke-width:0px;"/></svg>