<svg id="Layer_1" data-name="Layer 1" xmlns="http://www.w3.org/2000/svg" viewBox="0 0 127.4 116.4" style="height: auto; width: 150px; padding: 10px; padding-top: 25px;"><path id="Snow_lg" d="M95.43,35c-.75.16-1.15-.46-1.26-1.42-.13-1.14-.43-2.07-1.89-2-.71,0-.72-.73-.94-1.21-.34-.77-.86-1.26-1.72-.86s-.87,1.12-.24,1.77,1,1.05.46,2,.38,1.31.94,1.77c1.48,1.22,1.49,1.29.33,2.69-2.42,2.91-4.9,2.57-6.57-.87a1,1,0,0,1,.38-1.3c1-.78,2.24-1.45,1.25-3.1-.22-.36.3-.72.55-1,.48-.61.7-1.26-.11-1.74s-1.23,0-1.48.69a1.64,1.64,0,0,1-1.67,1.3c-.9,0-1.06.86-1.22,1.61-.36,1.78-.51,1.89-2.28,1.63-3.91-.55-4.3-1.27-2.89-4.94.41-1.07.92-1.49,2.06-1.05s2.25.83,3.18-.53c.36-.53,1.12-.1,1.7-.1s1.13-.12,1.13-1-.51-1.19-1.22-1c-.9.19-1.6.32-2.24-.65-.46-.71-1.34-.35-2-.13-2,.61-2,.59-2.73-1.25-1.23-3.15-.77-3.93,2.64-4.47,2.2-.35,2.6-.22,2.75,1.82,0,.52.31,1.19.78,1.21,1.36,0,1.78.91,2.25,1.95a1.08,1.08,0,1,0,1.74-1.28,2.11,2.11,0,0,1-.7-2.28c.2-.79-.68-1.45-1.25-2s-.82-1.38,0-2.1l.1-.1c2.54-2.95,3.78-2.9,6.15.16a1.31,1.31,0,0,1-.07,2c-.79.82-1.73,1.56-1.13,3,.2.48-.45.85-.77,1.22-.58.65-.6,1.29.12,1.75a1.08,1.08,0,0,0,1.51-.2,1,1,0,0,0,.18-.38c.36-1,.81-1.6,2-1.61.8,0,.93-.88,1-1.58.22-1.74.38-1.86,2.09-1.61.22,0,.45.08.67.13,1.12.3,2.59.18,3,1.56s-.43,2.86-1.15,4.14c-.38.67-1.06.38-1.6.12-1.17-.58-2.23-.89-3.06.55-.32.55-.92.23-1.4.12a1.37,1.37,0,0,0-1.7.5.89.89,0,0,0,0,1,1.36,1.36,0,0,0,1.72.44,1.45,1.45,0,0,1,1.78.55c.71.94,1.68.43,2.52.09a1.43,1.43,0,0,1,2.16.89c1.6,3.61,1.1,4.58-2.76,5.1Z" transform="translate(-14.57 -5.29)" style="fill:#e21c4d"></path><g id="Berry"><path d="M61.45,42.09C66.72,39.9,72,39.59,77.23,42a27.39,27.39,0,0,1,4,2.19,49.41,49.41,0,0,0,12.11,6.17c5.74,1.91,8.27,6.27,8.83,12,.65,6.83-1.94,12.59-6.26,17.69a29.07,29.07,0,0,1-34.22,8.1,25.85,25.85,0,0,1-7.66-5,27.84,27.84,0,0,0,8-1.49,43.17,43.17,0,0,0,7.21-3.65c.46,1.33.87,2.57,2.2,3.21a10.61,10.61,0,0,0,4.07.72,2.17,2.17,0,0,0,.24-1.47v-24c0-7.83-4.23-12.73-12-14ZM88,51.33A16.36,16.36,0,0,1,93.24,58c.22.51.44,1.29,1.16,1.14s1-.89,1.11-1.59a3.63,3.63,0,0,0,0-1.23c-.46-2.57-4-5.45-6.56-5.42A1,1,0,0,0,88,51.33Z" transform="translate(-14.57 -5.29)" style="fill:#e21c4d"></path><path d="M69.35,61.49V71.64a1.11,1.11,0,0,1-.63,1.1c-5,2.65-10.23,4.32-15.94,4A5.9,5.9,0,0,1,47,72.11c-.79-2.77.2-4.83,2.09-6.66a8.75,8.75,0,0,1,3.51-2.12C58,61.7,63.59,61.73,69.35,61.49Z" transform="translate(-14.57 -5.29)" style="fill:#e21c4d"></path><path d="M69.22,56.22c-8,.61-16,.29-23.33,4.42a18,18,0,0,1,3.79-9.55,9.22,9.22,0,0,1,8-3.94,23.3,23.3,0,0,1,5.34.36C67.29,48.45,69.69,51.77,69.22,56.22Z" transform="translate(-14.57 -5.29)" style="fill:#e21c4d"></path></g><path id="Snow_md" d="M59.81,26.69c-1.58.17-2-.56-2-1.55s-.2-1.93,1.31-1.81c1.21.1,1.49-1.52,2.66-1.62a.75.75,0,0,0,0-.49.48.48,0,0,0-.63-.28l-.06,0c-1,.59-2.37-.35-3.41.75-.46.48-2.43-1.53-2.14-2.31.37-1,1.38-1.3,2.25-1.69.64-.28.86.35,1.13.75.7,1,2.14.52,2.92,1.41.11.12.42-.13.51-.36a.55.55,0,0,0-.25-.71c-1-.58-1-2.11-2.48-2.39-.61-.12,0-1.05.18-1.56.28-.69.62-1.41,1.55-1.29a5,5,0,0,1,2.11,1c.2.13.41.45.28.57-1.1,1,0,2.12-.35,3.13-.14.43,0,.75.37.88a.58.58,0,0,0,.83-.48c0-1.14,1.13-1.75,1.06-3-.07-1.06,1.17-.74,1.86-.88a1.3,1.3,0,0,1,1.71.75,1.78,1.78,0,0,1-1.38,2.67c-1,.22-1.41,1.38-2.53,1.42-.2,0-.26.46-.08.72a.59.59,0,0,0,.72.26,1.72,1.72,0,0,1,1.92,0c.32.23.67-.16.94-.4.42-.34.79-.9,1.38-.34s1.55,1.26,1.34,2.26-1.31,1.36-2.21,1.69c-.7.27-.89-.44-1.14-.91-.16-.28-.37-.63-.73-.56a1.52,1.52,0,0,1-1.67-.59.55.55,0,0,0-.78-.07.76.76,0,0,0-.11.14.55.55,0,0,0,.08.78l.07.05c1,.55,1,2.12,2.48,2.39.61.1,0,1-.19,1.55s-.5,1.46-1.49,1.34A5.34,5.34,0,0,1,63.76,27c-.21-.12-.41-.42-.27-.55,1-1,.13-2.17.32-3.24.07-.42,0-.76-.44-.86s-.73.18-.83.67c-.2,1.08-1.16,1.86-1.06,3.16C61.53,26.71,60.16,26.62,59.81,26.69Z" transform="translate(-14.57 -5.29)" style="fill:#e21c4d"></path><path id="Snow_sm" d="M76.54,8.76c.86-.38,1.69-.52,2.11-1.27,1.86.72,1.93,1,.55,2.35a3.86,3.86,0,0,0-2.72-.32c.9.59,1.45,1.25,2.42,1.18,0,.74.34,1.55-.62,1.77s-1.51,0-1.53-1.16c0-.36-.44-.72-.72-1.15a1.23,1.23,0,0,0-.41,1.33c.42.95.06,1.44-.8,1.6-1.08.21-1.06-.71-1.34-1.46.92-.28,1.14-1.06,1.74-2-1,.47-1.89.51-2.29,1.33-1.88-.71-1.93-.95-.55-2.35A4.22,4.22,0,0,0,74.93,9a3.24,3.24,0,0,0-1.61-1.17c-.69-.15-.7-.62-.66-1.15s.25-.81.76-.78,1.1-.12,1.29.68a4.91,4.91,0,0,0,.8,1.66c.07-.78,1-1.46,0-2.16C77.16,4.89,77.46,5,78,6.74A2.72,2.72,0,0,0,76.54,8.76Z" transform="translate(-14.57 -5.29)" style="fill:#e21c4d"></path><g id="text"><path d="M70.69,99.36c.11,1.41-.68,1.83-1.76,1.85a17.67,17.67,0,0,0-3.56.33,4.22,4.22,0,0,0-3.7,4.26c.66-.28,1.26-.53,1.88-.75,3.48-1.22,6.77.28,7.8,3.53a6.79,6.79,0,0,1-4.18,8.59,6,6,0,0,1-7.81-4.31,15.75,15.75,0,0,1,.23-8.69,6.13,6.13,0,0,1,4.3-4.27A20.43,20.43,0,0,1,70.69,99.36Zm-5.35,7.35c-3.34,0-4.51,1.38-3.88,4.63a9.1,9.1,0,0,0,.53,1.85,3.38,3.38,0,0,0,2.2,2.11,3.5,3.5,0,0,0,3.89-1,5.1,5.1,0,0,0,.77-5.44A3.45,3.45,0,0,0,65.34,106.71Z" transform="translate(-14.57 -5.29)" style="fill:#e21c4d"></path><path d="M92.37,116.67v5c-1.74,0-2.37-.36-2.39-1.83,0-5.14,0-10.28,0-15.51,1,.11,2.14-.7,2.64.8,4-1.73,6-1.6,7.91.52a7.74,7.74,0,0,1,.64,8.53C99.47,117,97.14,117.74,92.37,116.67Zm0-5.73c0,.87.06,1.74,0,2.61s.24,1.22,1,1.45c2.26.63,4.29.17,5.38-1.33a6.34,6.34,0,0,0,.1-6.16,3.6,3.6,0,0,0-4.3-1.2c-2,.6-2.2.94-2.2,3Z" transform="translate(-14.57 -5.29)" style="fill:#e21c4d"></path><path d="M105.49,104.23c1,.29,2.21-.62,2.63,1,2.76-1.62,5.52-2.19,8,.5,1.88,2,2.13,6,.62,8.54-1.63,2.76-3.86,3.4-8.72,2.42v4.87c-1.6.31-2.45-.17-2.46-1.57C105.47,114.81,105.49,109.63,105.49,104.23Zm2.44,6.69c0,.92,0,1.84,0,2.75a1.1,1.1,0,0,0,.91,1.29c2.2.69,4.33.28,5.44-1.16a6.19,6.19,0,0,0,.19-6.27c-.86-1.34-2.41-1.78-4.28-1.21s-2.24.94-2.24,3Z" transform="translate(-14.57 -5.29)" style="fill:#e21c4d"></path><path d="M86.17,110.87H77.28c-.08-1.31.69-1.64,1.72-1.66h5a2.56,2.56,0,0,0-.91-2.62c-2-1.75-5.76-.7-6.48,1.85a6.73,6.73,0,0,0,.42,4.85c.82,1.7,2.74,2.43,5,2a7.87,7.87,0,0,0,3.11-1.35,4.57,4.57,0,0,1,1.35,1.22c-1.78,2.3-6.45,3-9.38,1.4-2.72-1.46-3.85-5-2.68-8.32a6.74,6.74,0,0,1,9.66-3.52C85.89,105.77,86.67,108,86.17,110.87Z" transform="translate(-14.57 -5.29)" style="fill:#e21c4d"></path><path d="M17.38,106l-.73-1.56c2.64-.86,5.16-1.22,7.67,0a3.4,3.4,0,0,1,2.06,3.06c.07,3.11,0,6.22,0,9.41a1.71,1.71,0,0,1-2.24-1c-1,.42-1.87.88-2.8,1.21a6.47,6.47,0,0,1-3,.3A4.06,4.06,0,0,1,14.61,114a4.24,4.24,0,0,1,2.75-4.45,12.93,12.93,0,0,1,4-.83L24,108.5C24.33,105.71,22.08,104.85,17.38,106Zm6.79,4.35a16.86,16.86,0,0,0-5.56.62,2.41,2.41,0,0,0-1.74,2.1A1.74,1.74,0,0,0,18,115c2,.82,3.88,0,5.65-.86,1.1-.53.36-1.74.54-2.62A3.57,3.57,0,0,0,24.17,110.39Z" transform="translate(-14.57 -5.29)" style="fill:#e21c4d"></path><path d="M39.08,115.89A12.16,12.16,0,0,1,35.82,117c-3.07.46-5.6-1.29-5.83-4.39-.21-2.72,0-5.48,0-8.3H32.3v6.32c0,1.5,0,3,1.56,3.86s3.21.27,4.76-.38c.6-.26.57-.74.57-1.26v-7a2.89,2.89,0,0,1,.17-1.52h2.11V117A2,2,0,0,1,39.08,115.89Z" transform="translate(-14.57 -5.29)" style="fill:#e21c4d"></path><path d="M121.05,104.34h2.15a14,14,0,0,1,.14,3.24c0,1,0,1.93,0,2.89-.26,4.73,3,5.09,5.91,3.86a1.43,1.43,0,0,0,1-1.53c-.05-2.8,0-5.59,0-8.46h2.32V117a2.18,2.18,0,0,1-2.52-1.06,12,12,0,0,1-3,1.1c-3.19.52-5.66-1.16-5.93-4.38C120.87,109.91,121.05,107.15,121.05,104.34Z" transform="translate(-14.57 -5.29)" style="fill:#e21c4d"></path><path d="M56.64,106.16l-1.19,1.26c-4.09-2-6.37-2-7.87-.12a5.87,5.87,0,0,0,0,6.7c1.54,1.83,4,1.82,7.72-.07a3.8,3.8,0,0,1,1.24,1.22c-2.25,2.7-7.83,3-10.52.58-2.51-2.26-2.69-7.25-.35-9.81C48.17,103.21,53.73,103.3,56.64,106.16Z" transform="translate(-14.57 -5.29)" style="fill:#e21c4d"></path><path d="M142,100.11a3.61,3.61,0,0,1-3.68,3.51,3.57,3.57,0,0,1-3.75-3.42c0-2.11,1.9-3.73,4.29-3.62A4,4,0,0,1,142,100.11Zm-5.87-1.86c-1.17,1.62-1.13,2.44,0,3.93a3.31,3.31,0,0,0,4.24-.08,2.6,2.6,0,0,0,.29-3.59,2.83,2.83,0,0,0-4-.66A3.56,3.56,0,0,0,136.1,98.25Z" transform="translate(-14.57 -5.29)" style="fill:#e21c4d"></path><path d="M32.91,100.93c0-1.15.47-1.74,1.51-1.76,1.81,0,3.62,0,5.48,0,.12,1.17-.38,1.74-1.43,1.76C36.65,101,34.83,100.93,32.91,100.93Z" transform="translate(-14.57 -5.29)" style="fill:#e21c4d"></path><path d="M136.55,99.1l.09-1,.47,0c.4,0,.54,0,1,0,.66.11,1.44,0,1.66.9s-.25,1.18-.89,1.45c.24.59,1,.83.87,1.61-1.13.24-1.09-1.74-2.31-1.25-.5.16.2,1.27-.89,1.11,0-.61,0-.93,0-1.48a5.3,5.3,0,0,0,0-.82h0Zm.73-.39c-.13.74-.22,1.34.55,1.38.49,0,1.13-.3,1.06-.79C138.77,98.35,137.71,98.66,137.28,98.71Z" transform="translate(-14.57 -5.29)" style="fill:#e21c4d"></path></g></svg>