<svg id="Layer_1" data-name="Layer 1" xmlns="http://www.w3.org/2000/svg" viewBox="0 0 1022.9 1023.05"><defs><style>.cls-1{fill:gray;}</style></defs><path class="cls-1" d="M478.5.8c-2.2.2-9.2.9-15.5,1.4-145.28,13.1-281.37,91.49-367.56,212-48,67-78.69,143-90.29,223.48-4.1,28.09-4.6,36.39-4.6,74.49s.5,46.4,4.6,74.49C33,778.72,169.63,940.11,355,999.9c33.19,10.7,68.19,18,108,22.4,15.5,1.7,82.5,1.7,98,0,68.69-7.6,126.88-24.6,184.28-53.89,8.8-4.5,10.5-5.7,9.3-6.7-.8-.6-38.3-50.9-83.3-111.69L589.49,739.53,487,587.84c-56.39-83.39-102.79-151.58-103.19-151.58s-.8,67.29-1,149.58c-.3,144.09-.4,149.89-2.2,153.29-2.6,4.9-4.6,6.9-8.8,9.1-3.2,1.6-6,1.9-21.09,1.9h-17.3l-4.6-2.9a18.7,18.7,0,0,1-6.7-7.3l-2.1-4.5.2-200.48.3-200.58,3.1-3.9a27.43,27.43,0,0,1,7.4-6.1c4.1-2,5.7-2.2,23-2.2,20.39,0,23.79.8,29.09,6.6,1.5,1.6,57,85.19,123.39,185.88S663.69,752.83,708.28,820.32l81,122.69,4.1-2.7c36.3-23.6,74.7-57.2,105.09-92.19a509.19,509.19,0,0,0,120.39-261.48c4.1-28.09,4.6-36.39,4.6-74.49s-.5-46.4-4.6-74.49C991.05,245.58,854.37,84.19,669,24.4,636.29,13.8,601.49,6.5,562.5,2.1c-9.6-1-75.7-2.1-84-1.3ZM687.88,310.17A20.18,20.18,0,0,1,698,322c.8,2.6,1,58.19.8,183.48l-.3,179.78-31.7-48.59L635,588V457.36c0-84.5.4-132,1-134.29a20.4,20.4,0,0,1,9.9-12.6c4.1-2.1,5.6-2.3,21.29-2.3,14.8,0,17.4.2,20.7,2Z" transform="translate(-0.55 -0.52)"/><path d="M784.27,945.21c-3.5,2.2-4.6,3.7-1.5,2,2.2-1.3,5.8-4,5.2-4.1A20.59,20.59,0,0,0,784.27,945.21Zm-6.9,4.5c-1.8,1.4-1.8,1.5.4.4a6.12,6.12,0,0,0,2.2-1.5c0-.8-.5-.6-2.6,1.1Zm-5,3c-1.8,1.4-1.8,1.5.4.4a6.12,6.12,0,0,0,2.2-1.5c0-.8-.5-.6-2.6,1.1Zm-5,3c-1.8,1.4-1.8,1.5.4.4a6.14,6.14,0,0,0,2.19-1.5c0-.8-.5-.6-2.59,1.1Zm-7.6,4c-3.8,2-3.6,2.8.2.9a10.42,10.42,0,0,0,3-2C763,957.91,762.88,958,759.78,959.71Z" transform="translate(-0.55 -0.52)"/></svg>