<svg id="svg2" xmlns="http://www.w3.org/2000/svg" viewBox="0 0 111.81 112.39"><defs><style>.cls-1{fill:gray;}.cls-2{fill:#d3d3d3;}</style></defs><path id="path1948" class="cls-1" d="M54.92,0A76.59,76.59,0,0,0,42.11,1.09C30.76,3.1,28.7,7.29,28.7,15V25.25H55.51v3.41H18.64C10.85,28.66,4,33.34,1.89,42.25-.57,52.46-.68,58.84,1.89,69.5c1.9,7.94,6.46,13.59,14.25,13.59h9.22V70.84A17,17,0,0,1,42.11,54.19H68.89a13.51,13.51,0,0,0,13.4-13.63V15c0-7.26-6.13-12.72-13.4-13.94A84.56,84.56,0,0,0,54.92,0ZM40.42,8.22a5.11,5.11,0,1,1-5,5.12A5.09,5.09,0,0,1,40.42,8.22Z" transform="translate(0 0)"/><path id="path1950" class="cls-2" d="M86.28,28.66v11.9c0,9.23-7.82,17-16.75,17H42.75A13.68,13.68,0,0,0,29.34,71.19V96.72c0,7.27,6.32,11.54,13.41,13.62a44.79,44.79,0,0,0,26.78,0c6.75-2,13.41-5.88,13.41-13.62V86.5H56.16V83.09H96.34c7.8,0,10.7-5.43,13.41-13.59,2.8-8.4,2.68-16.47,0-27.25-1.93-7.76-5.6-13.59-13.41-13.59ZM71.22,93.31a5.11,5.11,0,1,1-5,5.1A5.06,5.06,0,0,1,71.22,93.31Z" transform="translate(0 0)"/></svg>