<?xml version="1.0" encoding="UTF-8"?>
<svg xmlns="http://www.w3.org/2000/svg" xmlns:xlink="http://www.w3.org/1999/xlink" viewBox="0 0 43.16 87.63">
  <defs>
    <linearGradient id="linear-gradient" x1="17.85" y1="59.75" x2="47.06" y2="55.12" gradientUnits="userSpaceOnUse">
      <stop offset="0" stop-color="#18171f"/>
      <stop offset=".83" stop-color="#22212b"/>
      <stop offset="1" stop-color="#1f1e28"/>
    </linearGradient>
    <linearGradient id="linear-gradient-2" x1="23.55" y1="58.68" x2="40.49" y2="58.68" gradientUnits="userSpaceOnUse">
      <stop offset="0" stop-color="#1d1c24"/>
      <stop offset=".64" stop-color="#22212b"/>
      <stop offset="1" stop-color="#292834"/>
    </linearGradient>
    <linearGradient id="linear-gradient-3" x1="17.83" y1="31.62" x2="28.08" y2="3.46" gradientUnits="userSpaceOnUse">
      <stop offset=".72" stop-color="#25242f"/>
      <stop offset=".83" stop-color="#2c2b38"/>
    </linearGradient>
    <linearGradient id="linear-gradient-4" x1="19.02" y1="20.4" x2="26.05" y2="3.01" gradientUnits="userSpaceOnUse">
      <stop offset="0" stop-color="#2c2b38"/>
      <stop offset=".1" stop-color="#302f3e"/>
      <stop offset=".26" stop-color="#343343"/>
    </linearGradient>
    <linearGradient id="linear-gradient-5" x1="40.72" y1="33.45" x2="34.34" y2="22.4" gradientUnits="userSpaceOnUse">
      <stop offset=".72" stop-color="#2a2936"/>
      <stop offset=".89" stop-color="#2e2d3b"/>
      <stop offset="1" stop-color="#343343"/>
    </linearGradient>
    <linearGradient id="linear-gradient-6" x1="39.93" y1="33.9" x2="36.15" y2="27.36" gradientUnits="userSpaceOnUse">
      <stop offset=".05" stop-color="#201f29"/>
      <stop offset="1" stop-color="#2a2936"/>
    </linearGradient>
    <linearGradient id="linear-gradient-7" x1="20.82" y1="27.65" x2="20.82" y2="15.21" gradientUnits="userSpaceOnUse">
      <stop offset="0" stop-color="#17171f"/>
      <stop offset=".46" stop-color="#0e0e13"/>
      <stop offset="1" stop-color="#000"/>
    </linearGradient>
  </defs>
  <g style="isolation: isolate;">
    <g id="Layer_2" data-name="Layer 2">
      <g id="Layer_1-2" data-name="Layer 1">
        <g>
          <g>
            <g>
              <path d="M16.53,35.42l-.81,11.23s3.08,2.67,3.59,2.77c.5.09.2-13.95-2.77-13.99Z" style="fill: #8f181b; stroke-width: 0px;"/>
              <path d="M39,55.84c1.81,7.17,3.42,17.6,3.16,20.77h0s-.01,4.88-.01,4.88c0,0,.14,2.18-3.29,4.05-3.42,1.86-4.8,2.56-6.95,1.79-.2-.07-.44-.17-.72-.3-2.75-1.26-9.01-5.62-9.58-5.9-.64-.32-1.1-3.01.06-4.34,1.16-1.33,1.79-1.8,1.79-1.8h0c-.01-.08-.14-.77-.35-1.91-1.36-7.5-6.25-34.59-6.62-37.24-.43-3.08-.71-5.85-.71-5.85,0,0,2.62-1.28,8.4-1.06,3.12.12,8.4.49,12.59.82,3.57.28,6.36.51,6.36.51.2,1.66-4.44,6.44-4.48,6.63-.86,3.5-1.36,6.67-1.38,7.14,0,.22.16,5.58,1.74,11.82Z" style="fill: url(#linear-gradient); stroke-width: 0px;"/>
              <path d="M39,55.84c1.81,7.17,3.43,17.6,3.16,20.77h0s-.01,4.88-.01,4.88c0,0,.14,2.18-3.28,4.05-3.42,1.86-4.8,2.56-6.95,1.79-.2-.07-.44-.17-.72-.3-.18-4.65-.63-13.81-1.74-18.27-1.78-7.1-3.24-17.7-3.26-17.91-.02-.21,0-2.17.32-4.95.32-2.78,1.82-5.43,2.34-5.92.52-.49,2.51-2.56,3.13-4.17,0,0,2.19-2.84,4.79-6.07,3.57.27,6.35.51,6.35.51.2,1.66-4.43,6.44-4.48,6.63-.86,3.5-1.36,6.67-1.38,7.14,0,.22.16,5.58,1.74,11.82Z" style="fill: url(#linear-gradient-2); stroke-width: 0px;"/>
              <path d="M42.15,81.48s.14,2.18-3.28,4.05c-3.42,1.86-4.8,2.56-6.95,1.79-2.15-.77-9.98-5.84-10.63-6.4-.54-.46-.77-2.81.39-4.14,1.16-1.33,1.79-1.8,1.79-1.8.13.71.47,1.12.47,1.12,0,0,4.81,5.69,7.63,6,2.82.32,3.98-.54,7.31-2.3,3.24-1.72,3.28-3.11,3.28-3.18v4.87Z" style="fill: #1c1b24; stroke-width: 0px;"/>
              <path d="M43.12,30.24s.07,1.73-3.28,3.71c-3.35,1.98-4.8,2.19-5.86,2.3-1.06.1-2.01-.44-2.01-.44l-16.19-4.93L.96,24.94S-.01,12.51,0,12.38C.17,10.04,12.08-1.26,18.88.12c0,0,8.51,6.2,12.93,10.45,4.42,4.25,10.02,7.64,10.51,8.19h0c.48.55.83,5.05.83,5.05l-.03,6.44Z" style="fill: url(#linear-gradient-3); stroke-width: 0px;"/>
              <path d="M42.32,18.75l-11.03,6.53C30.32,25.16,0,12.38,0,12.38l.11-1.07C.28,8.97,12.34-1.16,19.14.22c3.08,1.67,22.7,17.99,23.18,18.53Z" style="fill: url(#linear-gradient-4); stroke-width: 0px;"/>
              <path d="M43.12,30.24s.07,1.73-3.28,3.71c-3.35,1.98-4.8,2.19-5.86,2.3-1.06.1-2.01-.44-2.01-.44l.05-6.06-.73-4.46c.68-2.01,6.2-4.61,8.22-5.73s2.82-.8,2.82-.8h0c.48.55.83,5.05.83,5.05l-.03,6.44Z" style="fill: url(#linear-gradient-5); stroke-width: 0px;"/>
              <path d="M43.12,30.24s.07,1.73-3.28,3.71c-3.35,1.98-4.8,2.19-5.86,2.3-1.06.1-2.01-.44-2.01-.44l.02-2,.03-4.06c1.59-.11,5.05-1.68,6.72-2.67l1.2-.7s2.7-1.52,3.21-2.57l-.03,6.44Z" style="fill: url(#linear-gradient-6); stroke-width: 0px;"/>
            </g>
            <path d="M25.92,71.23c-.23,1.6-.89,2-2.8,1.83-1.36-7.5-6.25-34.59-6.62-37.24,0,0,2.51,2.44,3.52,2.82,1,.38,1.52.44,1.52.44,0,0,1.07,4.49.19,6.08-.88,1.59-.9,5.85.55,7.48s2.45,8.32,1.51,9.7c-.94,1.38,2.45,6.69,2.14,8.89Z" style="fill: #2a2936; stroke-width: 0px;"/>
          </g>
          <path d="M31.61,23.45C27.51,21.84.26,11.4.26,11.4l-.08.92,31.12,12.97c1.06-2.28,8.56-5.97,10.18-6.52-1.82-.05-9.04,4.01-9.86,4.69Z" style="fill: url(#linear-gradient-7); mix-blend-mode: screen; stroke-width: 0px;"/>
        </g>
      </g>
    </g>
  </g>
</svg>