<svg id="Layer_1" data-name="Layer 1" xmlns="http://www.w3.org/2000/svg" viewBox="0 0 2500 1500"><defs><style>.cls-1{fill:#a9a9a9;}</style></defs><path class="cls-1" d="M1250,2Q750,2,625,502q187.5-250,437.5-187.5c95.09,23.77,163.06,92.76,238.29,169.12C1423.35,608,1565.19,752,1875,752q500,0,625-500-187.5,250-437.5,187.5c-95.09-23.77-163.06-92.76-238.29-169.12C1701.65,146,1559.81,2,1250,2ZM625,752Q125,752,0,1252q187.5-250,437.5-187.5c95.09,23.77,163.06,92.76,238.29,169.12C798.35,1358,940.19,1502,1250,1502q500,0,625-500-187.5,250-437.5,187.5c-95.09-23.77-163.06-92.76-238.29-169.12C1076.65,896,934.81,752,625,752Z" transform="translate(0 -2)"/></svg>