<svg id="Layer_1" data-name="Layer 1" xmlns="http://www.w3.org/2000/svg" viewBox="0 0 2454.32 2457.41"><defs><style>.cls-1{fill:#a9a9a9;}.cls-2{fill:#d3d3d3;}</style></defs><path class="cls-1" d="M2464.14,381.6,1311.22,2443.21c-23.8,42.57-85,42.82-109.12.46L26.33,381.79C0,335.63,39.47,279.72,91.78,289.08L1245.93,495.37a62.88,62.88,0,0,0,22.27,0l1130-206C2450.35,279.87,2490,335.35,2464.14,381.6Z" transform="translate(-17.94 -17.87)"/><path class="cls-2" d="M1795.71,18.48,942.53,185.66a31.33,31.33,0,0,0-25.25,28.9L864.8,1101a31.33,31.33,0,0,0,29.41,33.14,31.77,31.77,0,0,0,8.91-.75l237.54-54.82a31.32,31.32,0,0,1,37.73,36.79l-70.57,345.59a31.33,31.33,0,0,0,39.8,36.24l146.72-44.57a31.34,31.34,0,0,1,39.79,36.32L1222,2031.73c-7,33.95,38.14,52.47,57,23.36l12.59-19.44L1986.77,648.19c11.65-23.23-8.44-49.72-33.94-44.79l-244.52,47.18a31.33,31.33,0,0,1-36-39.44L1831.86,57.91a31.34,31.34,0,0,0-36.14-39.43Z" transform="translate(-17.94 -17.87)"/></svg>