<svg id="Layer_1" data-name="Layer 1" xmlns="http://www.w3.org/2000/svg" xmlns:xlink="http://www.w3.org/1999/xlink" viewBox="0 0 2497.06 2354.32"><defs><style>.cls-1{fill:gray;}.cls-2{fill:#a9a9a9;}.cls-3{fill:url(#linear-gradient);}.cls-4{fill:#d3d3d3;}</style><linearGradient id="linear-gradient" x1="1071.55" y1="1432.33" x2="1014.65" y2="1413.03" gradientTransform="matrix(3.12, 0, 0, -3.12, -2001.77, 5705.05)" gradientUnits="userSpaceOnUse"><stop offset="0" stop-opacity="0.3"/><stop offset="0.1" stop-opacity="0.2"/><stop offset="0.3" stop-opacity="0.1"/><stop offset="0.6" stop-opacity="0.1"/><stop offset="1" stop-opacity="0"/></linearGradient></defs><path class="cls-1" d="M834,2.39h738.9l-767.06,2274a117.88,117.88,0,0,1-111.62,80.19h-575A117.74,117.74,0,0,1,7.65,2201.26L722.29,82.52A117.93,117.93,0,0,1,833.92,2.32v0Z" transform="translate(-1.48 -2.32)"/><path class="cls-2" d="M2196.06,2356.61H1532.58a119.14,119.14,0,0,1-43.42-8.24,118.43,118.43,0,0,1-37.37-23.56L698.88,1621.65a54.26,54.26,0,0,1,37-94H1907.6L2196,2356.64Z" transform="translate(-1.48 -2.32)"/><path class="cls-3" d="M1575.5,2.39,1058.26,1527.85l845.12-.19,289.9,829h-661a120.63,120.63,0,0,1-20.42-1.9,117.9,117.9,0,0,1-19.79-5.37,120.16,120.16,0,0,1-35.46-20.32L948.38,1854.67,806.1,2274.27a126,126,0,0,1-96.76,82.34H119.46A117.57,117.57,0,0,1,8.58,2199.35L722.07,84.11a115.82,115.82,0,0,1,16.55-33A116.71,116.71,0,0,1,834,2.39H1575.5Z" transform="translate(-1.48 -2.32)"/><path class="cls-4" d="M2492.35,2201.26A117.65,117.65,0,0,1,2381,2356.61H1557.43a117.74,117.74,0,0,0,111.5-155.35L954.25,82.45A117.56,117.56,0,0,0,842.81,2.39H1666.3a117.63,117.63,0,0,1,111.51,80.06l714.67,2118.81Z" transform="translate(-1.48 -2.32)"/></svg>