<svg id="Layer_1" data-name="Layer 1" xmlns="http://www.w3.org/2000/svg" viewBox="0 0 2452.24 1992"><defs><style>.cls-1{fill:#fff;}.cls-2{fill:gray;}.cls-3{fill:#a9a9a9;}</style></defs><path class="cls-1" d="M2022.12,1473c-99.07,101.07-237.65,158.23-387.76,158.43s-288.9-56.45-388-157.23c-48.43-49.14-83.93-105.49-106-165.76a430.7,430.7,0,0,1-24.27-185.1,438.14,438.14,0,0,1,53.15-174.38c29-52.55,68.79-100,117.92-140.09,96.27-78.51,218.8-120.93,347.16-121.13s250.78,42,347.15,120.13c49,40,88.84,87.24,117.72,139.68a437.87,437.87,0,0,1,53.25,174.28A431.26,431.26,0,0,1,2128.11,1307c-22.06,60.17-57.66,116.62-106,166Z" transform="translate(-35.67 -9.7)"/><path class="cls-2" d="M1314.08,1129.7c4.51-81.72,44.62-153.82,105-204.86,59.27-50.24,139.09-80.82,226-80.82s166.75,30.68,226,80.82C1931.47,976,1971.58,1048,1976.2,1129.7c4.61,84-29.19,162.15-88.45,220-60.36,58.86-146.4,95.86-242.66,95.86s-182.41-37-242.77-95.86c-59.16-57.86-92.86-136-88.24-220Z" transform="translate(-35.67 -9.7)"/><path class="cls-3" d="M786.73,1295.16c.6,31.89,10.83,94.06,26.07,142.69,32.19,102.78,86.74,197.94,162.75,281.77,78,86.14,173.87,155.33,284.78,204.37,116.62,51.64,242.87,78,373.93,77.71s257.3-27,373.82-79c110.81-49.63,206.67-119,284.58-205.36,75.91-84.23,130.36-179.5,162.55-282.28a715.53,715.53,0,0,0,30.59-157.53,723.47,723.47,0,0,0-5-156.53c-14.44-101.68-49.63-197-103.78-284-49.64-79.82-113.42-149.81-189.32-208.77l.1-.1-765.91-588-1.9-1.6C1369.53,0,1285.1.1,1229.84,38.81c-55.95,39.1-62.27,103.78-12.63,144.59l-.2.1,319.48,259.92-974,1h-1.3c-80.42.1-157.84,52.95-173.18,119.63-15.64,68,39,124.34,122.74,124.74l-.1.3,493.66-1L123.41,1364.25c-1.11.9-2.31,1.7-3.31,2.5-83,63.58-109.91,169.47-57.66,236.45,53.14,68.09,166.05,68.19,250.08.31l480.73-393.39s-7,53.15-6.52,85ZM2022.12,1473c-99.07,101.07-237.65,158.23-387.76,158.43s-288.9-56.45-388-157.23c-48.43-49.14-83.93-105.49-106-165.76a430.7,430.7,0,0,1-24.27-185.1,438.14,438.14,0,0,1,53.15-174.38c29-52.55,68.79-100,117.92-140.09,96.27-78.51,218.8-120.93,347.16-121.13s250.78,42,347.15,120.13c49,40,88.84,87.24,117.72,139.68a437.87,437.87,0,0,1,53.25,174.28A431.26,431.26,0,0,1,2128.11,1307c-22.06,60.17-57.66,116.62-106,166Z" transform="translate(-35.67 -9.7)"/></svg>