<svg id="Layer_1" data-name="Layer 1" xmlns="http://www.w3.org/2000/svg" viewBox="0 0 2440.69 2445.1"><defs><style>.cls-1{fill:#a9a9a9;}.cls-2{fill:gray;}.cls-3{fill:#ccccd4;}.cls-4{fill:#d3d3d3;}</style></defs><path class="cls-1" d="M1176.33,897.63v229.12L626.61,577.21,809.18,394.64,1086.5,672.15a178,178,0,0,0-11.13,62.62A180.94,180.94,0,0,0,1176.33,897.63Zm168.51,33,85.45,85.44-85.45,85.63ZM1867.73,579l-330.27,329.9L1426.27,798.12a179.36,179.36,0,0,0,9.86-85.26A182.57,182.57,0,0,0,1264.7,554.39a176.18,176.18,0,0,0-71,11L916.17,286.92,1151.32,52.5a134.36,134.36,0,0,1,190-.21l.21.21Z" transform="translate(-28.69 -13.04)"/><path class="cls-2" d="M1067.15,1337.26,567.63,1836.78,72,1345.84a155,155,0,0,1,1.64-216.53L584.8,618.11l482.35,484A166.5,166.5,0,0,1,1067.15,1337.26Z" transform="translate(-28.69 -13.04)"/><path class="cls-3" d="M1345.76,1396.78v209.77a172.72,172.72,0,0,1,81.42,180.38,170.13,170.13,0,0,1-135.46,137.48,172.9,172.9,0,0,1-115.39-323V1369.57a18.26,18.26,0,0,0-29.76-12.41L623.14,1880.41,1161.72,2419a133.83,133.83,0,0,0,189.15,0L1859,1911.81Z" transform="translate(-28.69 -13.04)"/><path class="cls-4" d="M2414.54,1372.31,1930,1857,1408.2,1335.25a156.27,156.27,0,0,1,0-220.91l60.06-60.62,133.1,132.73A181.11,181.11,0,0,0,1708.71,1419c93.86,34.57,198-13.49,232.55-107.35s-13.49-198-107.35-232.55a181.15,181.15,0,0,0-125.2,0L1576.35,946.92l338.49-338.31,499.7,499.89c72.85,72.45,73.17,190.25.71,263.1Z" transform="translate(-28.69 -13.04)"/></svg>