<svg id="Layer_1" data-name="Layer 1" xmlns="http://www.w3.org/2000/svg" viewBox="0 0 2118.93 2380.85"><defs><style>.cls-1{fill:#e535ab;}</style></defs><path class="cls-1" d="M222.93,1874.15l-87.4-50.46L1109.21,137.28l87.4,50.46Z" transform="translate(-30.03 -59.58)"/><path class="cls-1" d="M115.52,1689H2062.88v100.93H115.52Z" transform="translate(-30.03 -59.58)"/><path class="cls-1" d="M1128.09,2308l-974-562.38,50.46-87.4,974.05,562.38ZM1974.24,842.33,1000.2,280l50.46-87.4,974.05,562.38Z" transform="translate(-30.03 -59.58)"/><path class="cls-1" d="M204.78,841.94l-50.46-87.4,974-562.38,50.46,87.4Z" transform="translate(-30.03 -59.58)"/><path class="cls-1" d="M1956.28,1874.17,982.6,187.76,1070,137.29l973.68,1686.42ZM192.73,687.62H293.65V1812.38H192.73Z" transform="translate(-30.03 -59.58)"/><path class="cls-1" d="M1885.35,687.62h100.92V1812.38H1885.35Z" transform="translate(-30.03 -59.58)"/><path class="cls-1" d="M1110.91,2265.33,1066.83,2189,1914,1699.86l44.08,76.34Z" transform="translate(-30.03 -59.58)"/><path class="cls-1" d="M2120,1845.21c-58.37,101.54-188.48,136.19-290,77.82s-136.19-188.47-77.82-290,188.47-136.19,290-77.82c102.15,59,136.8,188.47,77.83,290M426.19,867c-58.36,101.54-188.47,136.19-290,77.82S0,756.32,58.37,654.79,246.84,518.6,348.37,577c101.54,59,136.19,188.47,77.82,290M59,1845.21c-58.36-101.53-23.71-231,77.83-290,101.53-58.37,231-23.72,290,77.82,58.37,101.53,23.71,231-77.82,290-102.14,58.37-231.64,23.71-290-77.82M1752.81,867c-58.37-101.53-23.72-231,77.82-290,101.53-58.37,231-23.71,290,77.82,58.37,101.53,23.72,231-77.82,290-101.53,58.37-231.64,23.72-290-77.82M1089.5,2440.42a212.19,212.19,0,1,1,212.18-212.18c0,116.73-94.84,212.18-212.18,212.18m0-1956.47a212.19,212.19,0,1,1,212.18-212.19A212,212,0,0,1,1089.5,484" transform="translate(-30.03 -59.58)"/></svg>