<svg id="Layer_1" data-name="Layer 1" xmlns="http://www.w3.org/2000/svg" viewBox="0 0 1344 2499.67"><defs><style>.cls-1{fill:gray;}.cls-2{fill:#d3d3d3;}</style></defs><path class="cls-1" d="M1287.38,1971.35H1278v-5.27h25.35v5.27H1294v26.28h-6.58Zm50.57,1.37h-.15l-9.34,24.92h-4.27l-9.27-24.92h-.11v24.92h-6.2v-31.55h9.13l8.59,22.34,8.57-22.34h9.1v31.55h-6.06Z" transform="translate(0 -0.16)"/><path class="cls-2" d="M444.35,1326.12s-65.52,38.1,46.63,51c135.87,15.5,205.31,13.27,355-15.06,0,0,39.37,24.68,94.34,46.06-335.64,143.85-759.63-8.34-496-82m-41-187.71s-73.49,54.39,38.74,66c145.14,15,259.76,16.2,458.09-22,0,0,27.43,27.81,70.57,43-405.82,118.66-857.82,9.36-567.4-87" transform="translate(0 -0.16)"/><path class="cls-1" d="M749.1,820c82.7,95.21-21.73,180.9-21.73,180.9s210-108.4,113.55-244.15c-90.07-126.6-159.14-189.5,214.8-406.37,0,0-587,146.59-306.62,469.62" transform="translate(0 -0.16)"/><path class="cls-2" d="M1193,1465s48.49,40-53.4,70.86c-193.73,58.69-806.35,76.41-976.53,2.34-61.18-26.62,53.54-63.55,89.63-71.3,37.64-8.16,59.14-6.64,59.14-6.64-68-47.93-439.74,94.1-188.81,134.78,684.34,111,1247.49-50,1070-130M475.86,943.91s-311.62,74-110.35,100.89c85,11.38,254.39,8.81,412.18-4.42,129-10.87,258.46-34,258.46-34s-45.47,19.47-78.37,41.93C641.34,1131.54,30,1092.82,206,1007.69c148.83-71.94,269.84-63.78,269.84-63.78m559,312.46c321.68-167.15,173-327.79,69.14-306.15-25.45,5.3-36.79,9.89-36.79,9.89a58.62,58.62,0,0,1,27.48-21.2c205.38-72.21,363.32,212.95-66.3,325.89,0,0,5-4.44,6.47-8.43" transform="translate(0 -0.16)"/><path class="cls-1" d="M840.92.16s178.15,178.21-169,452.25c-278.36,219.82-63.48,345.16-.12,488.37C509.37,794.18,390.13,665.13,470.12,545,587.53,368.72,912.8,283.24,840.92.16" transform="translate(0 -0.16)"/><path class="cls-2" d="M507.47,1709.33c308.77,19.76,782.92-11,794.15-157.07,0,0-21.58,55.38-255.18,99.37-263.54,49.6-588.59,43.81-781.37,12,0,0,39.47,32.66,242.4,45.68" transform="translate(0 -0.16)"/><path class="cls-1" d="M456.87,2267.59C427.74,2292.85,397,2307,369.37,2307c-39.41,0-60.7-23.63-60.7-61.53,0-41,22.82-71,114.33-71h33.86v93.05m80.37,90.68v-280.7c0-71.71-40.9-119-139.51-119-57.56,0-108,14.22-149,32.35l11.83,49.68c32.27-11.84,74.05-22.87,115.05-22.87,56.8,0,81.24,22.87,81.24,70.16v35.48H428.52c-138,0-200.28,53.58-200.28,134,0,69.4,41,108.85,118.28,108.85,49.66,0,86.72-20.51,121.37-50.51l6.29,42.61Zm268.23,0H705.23L584.59,1965.65h87.55L747,2206.88l16.64,72.55c37.87-104.9,64.66-211.32,78.06-313.78h85.16C904,2094.93,863,2236.84,805.47,2358.27M1190,2267.59c-29.18,25.26-60,39.45-87.61,39.45-39.34,0-60.68-23.63-60.68-61.53,0-41,22.86-71,114.36-71H1190v93.05m80.36,90.68v-280.7c0-71.71-41-119-139.5-119-57.6,0-108.05,14.22-149,32.35l11.81,49.68c32.28-11.84,74.13-22.87,115.1-22.87,56.76,0,81.24,22.87,81.24,70.16v35.48h-28.4c-138.06,0-200.29,53.58-200.29,134,0,69.4,41,108.85,118.23,108.85,49.69,0,86.74-20.51,121.45-50.51l6.31,42.61ZM140.12,2424.94c-22.92,33.46-59.92,59.92-100.44,74.9L0,2453.14c30.84-15.82,57.29-41.38,69.57-65.18,10.63-21.17,15-48.45,15-113.7V1826H170v442.1c0,87.22-7,122.46-29.87,156.82" transform="translate(0 -0.16)"/></svg>