<svg id="Layer_1" data-name="Layer 1" xmlns="http://www.w3.org/2000/svg" viewBox="0 0 2500 2500"><defs><style>.cls-1{fill:#a9a9a9;}.cls-2{fill:#d3d3d3;}</style></defs><path class="cls-1" d="M1247.88,1860.94c553.1,754,1094.38-210.45,1093.58-790.43C2340.53,384.8,1645.51,1.56,1247.43,1.56,608.49,1.55,0,529.61,0,1252.11,0,2055.18,697.51,2500,1247.43,2500,1123,2482.08,708.27,2393.22,702.71,1438,699,792,913.45,533.87,1246.53,647.41c7.46,2.77,367.41,144.76,367.41,608.6,0,461.87-366.06,604.92-366.06,604.92Z" transform="translate(0 0)"/><path class="cls-2" d="M1247.24,646.88c-365.47-126-813.18,175.26-813.18,778.58,0,985.13,730,1074.54,818.51,1074.54C1891.51,2500,2500,1971.93,2500,1249.44,2500,446.38,1802.49,1.55,1252.57,1.55c152.31-21.09,821,164.85,821,1078.69,0,596-499.26,920.39-824,781.78-7.46-2.76-367.41-144.75-367.41-608.59,0-461.89,365.12-606.55,365.12-606.55Z" transform="translate(0 0)"/></svg>