<?xml version="1.0" encoding="utf-8"?>
<!-- Generator: Adobe Illustrator 25.2.3, SVG Export Plug-In . SVG Version: 6.00 Build 0)  -->
<svg version="1.1" id="Layer_1" xmlns="http://www.w3.org/2000/svg" xmlns:xlink="http://www.w3.org/1999/xlink" x="0px" y="0px"
	 viewBox="0 0 223.1 203.8" style="enable-background:new 0 0 223.1 203.8;" xml:space="preserve">
<style type="text/css">
	.st0{display:none;fill:#FFFFFF;stroke:#E5E5E5;stroke-miterlimit:10;}
	.st1{display:none;fill:#E21C4D;}
	.st2{display:none;}
	.st3{display:inline;fill:#E21C4D;}
	.st4{display:inline;}
	.st5{fill:#FDFDFD;}
	.st6{fill:#1E1E1E;}
	.st7{fill:#025FF1;}
	.st8{fill:#1C1700;}
	.st9{fill:#030303;}
	.st10{fill:#1D1804;}
	.st11{clip-path:url(#SVGID_2_);}
	.st12{fill:#1E1E1E;stroke:#1E1E1E;stroke-width:18.4252;stroke-miterlimit:10;}
	.st13{fill:none;stroke:#1E1E1E;stroke-width:18.4252;stroke-miterlimit:10;}
	.st14{fill:none;stroke:#025FF1;stroke-width:18.4252;stroke-miterlimit:10;}
</style>
<path class="st0" d="M179.8,176.6H44.6c-6.2,0-11.3-5.1-11.3-11.3V30c0-6.2,5.1-11.3,11.3-11.3h135.2c6.2,0,11.3,5.1,11.3,11.3
	v135.2C191.1,171.5,186,176.6,179.8,176.6z"/>
<path id="Snow_lg" class="st1" d="M128.2,70.3c-0.7,0.2-1.1-0.5-1.3-1.4c-0.1-1.1-0.4-2.1-1.9-2c-0.7,0-0.7-0.7-0.9-1.2
	c-0.3-0.8-0.9-1.3-1.7-0.9c-0.9,0.4-0.9,1.1-0.2,1.8s1,1,0.5,2c-0.5,0.9,0.4,1.3,0.9,1.8c1.5,1.2,1.5,1.3,0.3,2.7
	c-2.4,2.9-4.9,2.6-6.6-0.9c-0.2-0.5-0.1-1,0.4-1.3c1-0.8,2.2-1.5,1.2-3.1c-0.2-0.4,0.3-0.7,0.6-1c0.5-0.6,0.7-1.3-0.1-1.7
	c-0.8-0.5-1.2,0-1.5,0.7c-0.2,0.8-0.9,1.3-1.7,1.3c-0.9,0-1.1,0.9-1.2,1.6c-0.4,1.8-0.5,1.9-2.3,1.6c-3.9-0.5-4.3-1.3-2.9-4.9
	c0.4-1.1,0.9-1.5,2.1-1.1c1.1,0.4,2.2,0.8,3.2-0.5c0.4-0.5,1.1-0.1,1.7-0.1s1.1-0.1,1.1-1c0-0.9-0.5-1.2-1.2-1
	c-0.9,0.2-1.6,0.3-2.2-0.6c-0.5-0.7-1.3-0.4-2-0.1c-2,0.6-2,0.6-2.7-1.2c-1.2-3.1-0.8-3.9,2.6-4.5c2.2-0.4,2.6-0.2,2.8,1.8
	c0,0.5,0.3,1.2,0.8,1.2c1.4,0,1.8,0.9,2.2,2c0.4,0.5,1,0.6,1.5,0.2c0.5-0.4,0.6-1,0.2-1.5c-0.7-0.5-1-1.4-0.7-2.3
	c0.2-0.8-0.7-1.5-1.2-2s-0.8-1.4,0-2.1l0.1-0.1c2.5-3,3.8-2.9,6.2,0.2c0.5,0.5,0.6,1.3,0.1,1.9c0,0.1-0.1,0.1-0.2,0.1
	c-0.8,0.8-1.7,1.6-1.1,3c0.2,0.5-0.4,0.8-0.8,1.2c-0.6,0.7-0.6,1.3,0.1,1.8c0.5,0.4,1.1,0.3,1.5-0.2c0.1-0.1,0.1-0.2,0.2-0.4
	c0.4-1,0.8-1.6,2-1.6c0.8,0,0.9-0.9,1-1.6c0.2-1.7,0.4-1.9,2.1-1.6c0.2,0,0.4,0.1,0.7,0.1c1.1,0.3,2.6,0.2,3,1.6
	c0.4,1.4-0.4,2.9-1.2,4.1c-0.4,0.7-1.1,0.4-1.6,0.1c-1.2-0.6-2.2-0.9-3.1,0.5c-0.3,0.5-0.9,0.2-1.4,0.1c-0.6-0.3-1.3-0.1-1.7,0.5
	c-0.2,0.3-0.2,0.7,0,1c0.4,0.6,1.1,0.7,1.7,0.4c0.6-0.3,1.4,0,1.8,0.5c0.7,0.9,1.7,0.4,2.5,0.1c0.7-0.4,1.6-0.2,2,0.4
	c0.1,0.1,0.2,0.3,0.2,0.4c1.6,3.6,1.1,4.6-2.8,5.1H128.2z"/>
<g id="Berry" class="st2">
	<path class="st3" d="M94.2,77.4c5.3-2.2,10.6-2.5,15.8-0.1c1.4,0.6,2.7,1.4,4,2.2c3.7,2.6,7.8,4.7,12.1,6.2c5.7,1.9,8.3,6.3,8.8,12
		c0.7,6.8-1.9,12.6-6.3,17.7c-8.3,10.1-22.3,13.4-34.2,8.1c-2.8-1.2-5.4-2.9-7.7-5c2.7-0.1,5.4-0.6,8-1.5c2.5-1,4.9-2.2,7.2-3.7
		c0.5,1.3,0.9,2.6,2.2,3.2c1.3,0.5,2.7,0.7,4.1,0.7c0.3-0.4,0.3-1,0.2-1.5v-24c0-7.8-4.2-12.7-12-14L94.2,77.4z M120.8,86.7
		c2.3,1.7,4.1,4,5.2,6.7c0.2,0.5,0.4,1.3,1.2,1.1s1-0.9,1.1-1.6c0.1-0.4,0.1-0.8,0-1.2c-0.5-2.6-4-5.4-6.6-5.4
		C121.3,86.2,121,86.4,120.8,86.7z"/>
	<path class="st3" d="M102.1,96.8V107c0,0.5-0.2,0.9-0.6,1.1c-5,2.7-10.2,4.3-15.9,4c-2.8,0-5.2-1.9-5.8-4.6
		c-0.8-2.8,0.2-4.8,2.1-6.7c1-1,2.2-1.7,3.5-2.1C90.8,97,96.4,97.1,102.1,96.8z"/>
	<path class="st3" d="M102,91.6c-8,0.6-16,0.3-23.3,4.4c0.3-3.5,1.6-6.8,3.8-9.5c1.8-2.6,4.8-4.1,8-3.9c1.8-0.1,3.6,0,5.3,0.4
		C100.1,83.8,102.5,87.1,102,91.6z"/>
</g>
<path id="Snow_md" class="st1" d="M92.6,62c-1.6,0.2-2-0.6-2-1.5c0-1-0.2-1.9,1.3-1.8c1.2,0.1,1.5-1.5,2.7-1.6
	c0.1-0.2,0.1-0.3,0-0.5c-0.1-0.2-0.4-0.4-0.6-0.3c0,0,0,0,0,0h-0.1c-1,0.6-2.4-0.3-3.4,0.8c-0.5,0.5-2.4-1.5-2.1-2.3
	c0.4-1,1.4-1.3,2.2-1.7c0.6-0.3,0.9,0.4,1.1,0.8c0.7,1,2.1,0.5,2.9,1.4c0.1,0.1,0.4-0.1,0.5-0.4c0.1-0.3,0-0.6-0.2-0.7
	c-1-0.6-1-2.1-2.5-2.4c-0.6-0.1,0-1,0.2-1.6c0.3-0.7,0.6-1.4,1.5-1.3c0.8,0.2,1.5,0.5,2.1,1c0.2,0.1,0.4,0.5,0.3,0.6
	c-1.1,1,0,2.1-0.3,3.1c-0.1,0.4,0,0.8,0.4,0.9c0.3,0.1,0.6,0,0.8-0.3c0-0.1,0.1-0.1,0.1-0.2c0-1.1,1.1-1.8,1.1-3
	c-0.1-1.1,1.2-0.7,1.9-0.9c0.7-0.3,1.4,0,1.7,0.7c0,0,0,0,0,0c0.5,0.8,0.2,1.9-0.6,2.4c-0.2,0.1-0.5,0.2-0.7,0.2
	c-1,0.2-1.4,1.4-2.5,1.4c-0.2,0-0.3,0.5-0.1,0.7c0.1,0.3,0.4,0.4,0.7,0.3c0.6-0.4,1.3-0.4,1.9,0c0.3,0.2,0.7-0.2,0.9-0.4
	c0.4-0.3,0.8-0.9,1.4-0.3c0.6,0.6,1.6,1.3,1.3,2.3s-1.3,1.4-2.2,1.7c-0.7,0.3-0.9-0.4-1.1-0.9c-0.2-0.3-0.4-0.6-0.7-0.6
	c-0.6,0.2-1.3-0.1-1.7-0.6c-0.2-0.2-0.5-0.3-0.8-0.1c0,0,0,0,0,0c0,0-0.1,0.1-0.1,0.1c-0.2,0.2-0.2,0.6,0.1,0.8c0,0,0,0,0,0l0.1,0
	c1,0.5,1,2.1,2.5,2.4c0.6,0.1,0,1-0.2,1.5s-0.5,1.5-1.5,1.3c-0.8-0.2-1.5-0.5-2.1-0.9c-0.2-0.1-0.4-0.4-0.3-0.5c1-1,0.1-2.2,0.3-3.2
	c0.1-0.4,0-0.8-0.4-0.9c-0.4-0.1-0.7,0.2-0.8,0.7c-0.2,1.1-1.2,1.9-1.1,3.2C94.3,62,92.9,62,92.6,62z"/>
<path id="Snow_sm" class="st1" d="M109.3,44.1c0.9-0.4,1.7-0.5,2.1-1.3c1.9,0.7,1.9,1,0.6,2.4c-0.8-0.4-1.8-0.5-2.7-0.3
	c0.9,0.6,1.4,1.2,2.4,1.2c0,0.7,0.3,1.5-0.6,1.8s-1.5,0-1.5-1.2c0-0.4-0.4-0.7-0.7-1.2c-0.4,0.3-0.6,0.8-0.4,1.3
	c0.4,1,0.1,1.4-0.8,1.6c-1.1,0.2-1.1-0.7-1.3-1.5c0.9-0.3,1.1-1.1,1.7-2c-1,0.5-1.9,0.5-2.3,1.3c-1.9-0.7-1.9-1-0.6-2.4
	c0.8,0.4,1.7,0.5,2.6,0.4c-0.4-0.5-1-1-1.6-1.2c-0.7-0.1-0.7-0.6-0.7-1.1c0-0.5,0.2-0.8,0.8-0.8c0.5,0,1.1-0.1,1.3,0.7
	c0.2,0.6,0.4,1.2,0.8,1.7c0.1-0.8,1-1.5,0-2.2c1.7-1.2,1.9-1.1,2.5,0.7C110,42.5,109.4,43.2,109.3,44.1z"/>
<g id="text" class="st2">
	<path class="st3" d="M103.5,134.7c0.1,1.4-0.7,1.8-1.8,1.8c-1.2,0-2.4,0.1-3.6,0.3c-2.1,0.3-3.7,2.1-3.7,4.3
		c0.7-0.3,1.3-0.5,1.9-0.8c3.5-1.2,6.8,0.3,7.8,3.5c1.2,3.5-0.7,7.4-4.2,8.6c-3.1,1.1-6.5-0.6-7.6-3.7c-0.1-0.2-0.1-0.4-0.2-0.6
		c-0.7-2.9-0.7-5.9,0.2-8.7c0.6-2.1,2.2-3.7,4.3-4.3C98.9,134.7,101.2,134.5,103.5,134.7z M98.1,142c-3.3,0-4.5,1.4-3.9,4.6
		c0.1,0.6,0.3,1.3,0.5,1.8c0.4,1,1.2,1.8,2.2,2.1c1.4,0.5,2.9,0.1,3.9-1c1.3-1.5,1.6-3.6,0.8-5.4C101,142.8,99.6,141.9,98.1,142z"/>
	<path class="st3" d="M125.1,152v5c-1.7,0-2.4-0.4-2.4-1.8c0-5.1,0-10.3,0-15.5c1,0.1,2.1-0.7,2.6,0.8c4-1.7,6-1.6,7.9,0.5
		c1.9,2.5,2.2,5.8,0.6,8.5C132.2,152.3,129.9,153.1,125.1,152z M125.1,146.3c0,0.9,0.1,1.7,0,2.6c-0.1,0.9,0.2,1.2,1,1.4
		c2.3,0.6,4.3,0.2,5.4-1.3c1.1-1.9,1.1-4.2,0.1-6.2c-1-1.3-2.8-1.8-4.3-1.2c-2,0.6-2.2,0.9-2.2,3L125.1,146.3z"/>
	<path class="st3" d="M138.3,139.6c1,0.3,2.2-0.6,2.6,1c2.8-1.6,5.5-2.2,8,0.5c1.9,2,2.1,6,0.6,8.5c-1.6,2.8-3.9,3.4-8.7,2.4v4.9
		c-1.6,0.3-2.4-0.2-2.5-1.6C138.2,150.1,138.3,145,138.3,139.6z M140.7,146.3c0,0.9,0,1.8,0,2.8c-0.1,0.6,0.3,1.2,0.9,1.3
		c0,0,0,0,0,0c2.2,0.7,4.3,0.3,5.4-1.2c1.2-1.9,1.3-4.3,0.2-6.3c-0.9-1.3-2.4-1.8-4.3-1.2c-1.9,0.6-2.2,0.9-2.2,3L140.7,146.3z"/>
	<path class="st3" d="M118.9,146.2H110c-0.1-1.3,0.7-1.6,1.7-1.7h5c0.2-1-0.1-2-0.9-2.6c-2-1.8-5.8-0.7-6.5,1.8
		c-0.5,1.6-0.3,3.3,0.4,4.9c0.8,1.7,2.7,2.4,5,2c1.1-0.2,2.2-0.7,3.1-1.4c0.5,0.3,1,0.7,1.3,1.2c-1.8,2.3-6.4,3-9.4,1.4
		c-2.7-1.5-3.8-5-2.7-8.3c1.3-3.5,5.2-5.3,8.7-4c0.3,0.1,0.7,0.3,1,0.5C118.7,141.1,119.4,143.3,118.9,146.2z"/>
	<path class="st3" d="M50.1,141.3l-0.7-1.6c2.6-0.9,5.2-1.2,7.7,0c1.2,0.5,2,1.7,2.1,3.1c0.1,3.1,0,6.2,0,9.4
		c-0.9,0.4-1.9-0.1-2.2-1c0,0,0,0,0,0c-1,0.4-1.9,0.9-2.8,1.2c-1,0.3-2,0.4-3,0.3c-1.9-0.1-3.4-1.5-3.7-3.4
		c-0.2-1.9,0.9-3.8,2.8-4.4c1.3-0.5,2.6-0.8,4-0.8l2.6-0.2C57.1,141,54.8,140.2,50.1,141.3z M56.9,145.7c-1.9-0.1-3.8,0.1-5.6,0.6
		c-1,0.3-1.6,1.1-1.7,2.1c-0.1,0.8,0.3,1.6,1.1,1.9c2,0.8,3.9,0,5.7-0.9c1.1-0.5,0.4-1.7,0.5-2.6C57,146.5,57,146.1,56.9,145.7
		L56.9,145.7z"/>
	<path class="st3" d="M71.8,151.2c-1,0.5-2.1,0.9-3.3,1.1c-3.1,0.5-5.6-1.3-5.8-4.4c-0.2-2.7,0-5.5,0-8.3h2.3v6.3c0,1.5,0,3,1.6,3.9
		c1.6,0.9,3.2,0.3,4.8-0.4c0.6-0.3,0.6-0.7,0.6-1.3v-7c-0.1-0.5,0-1,0.2-1.5h2.1v12.7C73.3,152.6,72.3,152.1,71.8,151.2z"/>
	<path class="st3" d="M153.8,139.7h2.1c0.2,1.1,0.2,2.2,0.1,3.2c0,1,0,1.9,0,2.9c-0.3,4.7,3,5.1,5.9,3.9c0.7-0.2,1.1-0.8,1-1.5
		c-0.1-2.8,0-5.6,0-8.5h2.3v12.7c-1,0.3-2-0.2-2.5-1.1c-0.9,0.5-2,0.9-3,1.1c-3.2,0.5-5.7-1.2-5.9-4.4
		C153.6,145.2,153.8,142.5,153.8,139.7z"/>
	<path class="st3" d="M89.4,141.5l-1.2,1.3c-4.1-2-6.4-2-7.9-0.1c-1.4,2-1.4,4.7,0,6.7c1.5,1.8,4,1.8,7.7-0.1
		c0.5,0.3,0.9,0.7,1.2,1.2c-2.2,2.7-7.8,3-10.5,0.6c-2.5-2.3-2.7-7.2-0.3-9.8C80.9,138.5,86.5,138.6,89.4,141.5z"/>
	<path class="st3" d="M174.8,135.4c-0.1,2-1.7,3.5-3.7,3.5c-2,0.1-3.6-1.4-3.7-3.4c0,0,0,0,0,0c0-2.1,1.9-3.7,4.3-3.6
		C173.3,132.3,174.6,133.7,174.8,135.4z M168.9,133.6c-1.2,1.6-1.1,2.4,0,3.9c1.2,1,3,1,4.2-0.1c1-0.9,1.2-2.5,0.3-3.6
		c-0.9-1.3-2.7-1.6-3.9-0.7c0,0,0,0-0.1,0C169.2,133.3,169,133.4,168.9,133.6L168.9,133.6z"/>
	<path class="st3" d="M65.7,136.3c0-1.1,0.5-1.7,1.5-1.8c1.8,0,3.6,0,5.5,0c0.1,1.2-0.4,1.7-1.4,1.8
		C69.4,136.3,67.6,136.3,65.7,136.3z"/>
	<path class="st3" d="M169.3,134.4l0.1-1h0.5c0.4,0,0.5,0,1,0c0.7,0.1,1.4,0,1.7,0.9c0.2,0.9-0.2,1.2-0.9,1.4c0.2,0.6,1,0.8,0.9,1.6
		c-1.1,0.2-1.1-1.7-2.3-1.2c-0.5,0.2,0.2,1.3-0.9,1.1c0-0.6,0-0.9,0-1.5c0-0.3,0-0.5,0-0.8l0,0V134.4z M170,134
		c-0.1,0.7-0.2,1.3,0.6,1.4c0.5,0,1.1-0.3,1.1-0.8C171.5,133.7,170.5,134,170,134z"/>
</g>
<g class="st2">
	<g class="st4">
		<path class="st5" d="M112.1,171.9c-24,0-47.9,0-71.9,0c-1.8,0-2.7,0-2.7-2.4c0.1-48.2,0.1-96.3,0-144.5c0-2.1,0.6-2.3,2.4-2.3
			c48.2,0.1,96.3,0.1,144.5,0c2.1,0,2.3,0.6,2.3,2.4c-0.1,48.2-0.1,96.3,0,144.5c0,2.1-0.6,2.3-2.4,2.3
			C160.2,171.8,136.2,171.9,112.1,171.9z M121.2,125.5c0.2,0.1,0.5,0.2,0.7,0.3c7.7,7.8,15.4,15.6,23.1,23.4
			c0.8,0.8,1.3,1.2,2.5,0.4c4.2-3,7.8-6.5,10.7-10.8c0.4-0.6,0.6-0.9-0.2-1.7c-7.5-7.3-14.8-14.7-22.2-22c-0.9-0.9-2.1-1.7-1.9-3.2
			l0.3,0l0.3-0.1c11.4,0.3,22.9,0.3,34.3,0c0.5,0.1,0.8-0.2,0.7-0.7c0.9-1.7,0.7-3.5,0.6-5.2c0-0.5,0-0.9,0-1.4
			c0.4-0.9,0.4-1.7,0-2.6c0-0.5,0-0.9,0-1.4c0-1.1-0.1-2.2-0.1-3.3c0.1-0.2,0.1-0.4-0.1-0.6c0.1-0.7,0-1.4-0.5-2
			c0-0.5-0.2-0.6-0.7-0.6c-11.5,0-23.1,0-35.4,0c2.8-2.8,5-4.9,7.1-6.9c5.5-5.5,11-11,16.5-16.5c1.4-1.4,2.2-2.3,0.7-4.6
			c-1.9-2.9-4.7-4.6-6.9-7.1c-3.7-4.2-4.2-3.9-8.2,0.1c-6.4,6.4-12.9,12.9-19.3,19.3c-0.7,0.7-1.2,1.9-2.6,1.8
			c0-11.2,0.1-22.3,0.1-33.5c0-0.7,0.6-1.8-0.8-2.1c-2.3-1-4.8-0.8-7.2-0.7c-0.7,0-1.3,0-2,0c-2.5-0.2-4.9-0.3-7.2,0.7
			c-0.5-0.1-0.6,0.2-0.6,0.6c0,10.9-0.1,21.7-0.2,32.6c0,0.8,0.6,1.9-0.4,2.3c-0.9,0.5-1.6-0.4-2.2-1c-6.9-6.9-13.8-13.8-20.7-20.7
			c-0.4-0.4-0.9-0.9-1-1.6c-0.2-1.5-1.2-1.7-2.3-0.9c-4.4,3-8,6.7-11,11.1c-0.5,0.7-0.7,1.1,0.1,1.9c8.5,7.8,16.7,16.1,24.5,24.7
			c-8.4,0.7-16.9,0.1-25.3,0.3c-3.6,0.1-8.5-1.6-10.4,0.7c-2.4,3-1.4,8-1.1,12.1c0.3,5.3,0.4,5.3,5.8,5.3c1.6,0,3.3,0,4.9,0
			c8.5,0,17,0,26.2,0c-1.2,1.3-1.9,2.1-2.6,2.8c-7,7-13.9,14-21,20.9c-1.6,1.6-1.7,2.6-0.3,4.4c2.7,3.4,5.7,6.3,9.1,9
			c1.6,1.2,2.5,1,3.8-0.4c7.1-7.2,14.3-14.3,21.4-21.4c0.6-0.6,1.1-1.7,2.5-1.7c0,0.5,0,1.1,0,1.6c0,10.4,0,20.9,0,31.3
			c0,2,0.4,2.9,2.6,3.1c4.4,0.5,8.7,0.5,13.1-0.1c2-0.2,2.6-0.8,2.5-2.8c-0.1-6.4-0.1-12.7,0-19.1
			C121,134.9,120.4,130.2,121.2,125.5z"/>
		<path class="st6" d="M103.6,44.5c2.3-1,4.8-0.9,7.2-0.7c0.7,0.9,1.3,0.9,2,0c2.4-0.1,4.9-0.4,7.2,0.7c0,10.8,0,21.5,0,32.3
			c0,1.1-0.5,2.5,0.7,3.4c1.3,0.1,1.8-1.1,2.6-1.8c6.5-6.4,12.9-12.9,19.3-19.3c4-4,4.6-4.3,8.2-0.1c2.2,2.5,5,4.2,6.9,7.1
			c1.5,2.2,0.6,3.2-0.7,4.6c-5.5,5.5-11,11-16.5,16.5c-2.1,2.1-4.2,4.2-7.1,6.9c12.3,0,23.9,0,35.4,0c0.2,0.2,0.5,0.4,0.7,0.6
			c0.5,0.6,0.6,1.3,0.5,2c-0.1,0.1-0.2,0.2-0.2,0.2c0.1,0.1,0.2,0.3,0.3,0.4c0,1.1,0.1,2.2,0.1,3.3c-0.8,0.5-0.7,0.9,0,1.4
			c0.4,0.9,0.4,1.7,0,2.6c-0.7,0.4-0.8,0.9,0,1.4c0.1,1.8,0.3,3.6-0.6,5.2c-0.2,0.2-0.5,0.5-0.7,0.7c-11.4,0.3-22.9,0.3-34.3,0
			c-0.3-0.5-0.5-0.3-0.6,0.1c-0.1,1.5,1,2.3,1.9,3.2c7.4,7.4,14.7,14.8,22.2,22c0.8,0.8,0.7,1,0.2,1.7c-2.9,4.2-6.5,7.8-10.7,10.8
			c-1.1,0.8-1.7,0.4-2.5-0.4c-7.7-7.8-15.4-15.6-23.1-23.4c0-9.7,0.1-19.4,0.1-29.1c0-0.9,0.3-2-0.7-2.7c-0.2-0.2-0.4-0.4-0.6-0.6
			c-0.6-1-1.5-0.8-2.4-0.8c-8.8,0-17.6,0-26.4,0c-0.7,0-1.6-0.2-2.1,0.6l-0.1,0.3C81.9,85,73.7,76.7,65.2,68.9
			c-0.8-0.8-0.6-1.2-0.1-1.9c3-4.3,6.7-8.1,11-11.1c1.2-0.8,2.1-0.7,2.3,0.9c0.1,0.7,0.6,1.1,1,1.6c6.9,6.9,13.8,13.8,20.7,20.7
			c0.6,0.6,1.3,1.4,2.2,1c1-0.5,0.4-1.6,0.4-2.3c0.1-10.9,0.1-21.7,0.2-32.6C103.2,44.9,103.4,44.7,103.6,44.5z"/>
		<path class="st7" d="M120.7,93.4c0.2,0.2,0.4,0.4,0.6,0.6c0,10.5,0,21,0,31.5c-0.8,4.7-0.2,9.4-0.3,14.1c-0.1,6.4-0.1,12.7,0,19.1
			c0,2-0.6,2.6-2.5,2.8c-4.4,0.5-8.7,0.5-13.1,0.1c-2.2-0.2-2.6-1.1-2.6-3.1c0.1-10.4,0-20.9,0-31.3c0-0.5,0-1,0-1.6
			c-1.4,0-1.8,1-2.5,1.7c-7.2,7.1-14.3,14.2-21.4,21.4c-1.3,1.4-2.3,1.6-3.8,0.4c-3.4-2.7-6.4-5.6-9.1-9c-1.4-1.7-1.3-2.8,0.3-4.4
			c7.1-6.9,14-13.9,21-20.9c0.7-0.7,1.4-1.5,2.6-2.8c-9.2,0-17.7,0-26.2,0c-1.6,0-3.3,0-4.9,0c-5.4,0-5.5,0-5.8-5.3
			c-0.3-4.2-1.3-9.2,1.1-12.1c1.9-2.3,6.8-0.5,10.4-0.7c8.4-0.3,16.9,0.3,25.3-0.3c0,0,0.1-0.3,0.1-0.3
			C100.1,93.8,110.4,93.4,120.7,93.4z"/>
		<path d="M120.8,80.1c-1.2-0.9-0.7-2.2-0.7-3.4c0-10.8,0-21.5,0-32.3c1.3,0.3,0.8,1.4,0.8,2.1C120.8,57.8,120.8,69,120.8,80.1z"/>
		<path class="st8" d="M121.2,125.5c0-10.5,0-21,0-31.5c1.1,0.7,0.7,1.7,0.7,2.7c0,9.7,0,19.4-0.1,29.1
			C121.7,125.7,121.5,125.6,121.2,125.5z"/>
		<path d="M112.8,43.8c-0.7,0.9-1.3,0.9-2,0C111.5,43.8,112.1,43.8,112.8,43.8z"/>
		<path class="st9" d="M170.3,101.9c-0.7-0.4-0.8-0.9,0-1.4C170.2,101,170.3,101.5,170.3,101.9z"/>
		<path class="st9" d="M170.2,105.9c-0.8-0.5-0.7-0.9,0-1.4C170.2,105,170.2,105.4,170.2,105.9z"/>
		<path d="M103.6,44.5c-0.2,0.2-0.4,0.4-0.6,0.6C102.9,44.7,103.1,44.5,103.6,44.5z"/>
		<path d="M169.6,94.7c-0.2-0.2-0.5-0.4-0.7-0.6C169.3,94,169.6,94.2,169.6,94.7z"/>
		<path class="st9" d="M170.1,97.3c-0.1-0.1-0.2-0.3-0.3-0.4c0,0,0.1-0.1,0.2-0.2C170.2,96.9,170.2,97.1,170.1,97.3z"/>
		<path d="M133.9,111.9c0.2-0.4,0.4-0.6,0.6-0.1l-0.3,0.1L133.9,111.9z"/>
		<path d="M168.9,111.8c0.2-0.2,0.5-0.5,0.7-0.7C169.6,111.6,169.4,111.9,168.9,111.8z"/>
		<path class="st10" d="M120.7,93.4c-10.3,0-20.6,0.3-30.8-0.2c0.5-0.8,1.4-0.6,2.1-0.6c8.8,0,17.6,0,26.4,0
			C119.2,92.7,120.1,92.5,120.7,93.4z"/>
	</g>
</g>
<g>
	<defs>
		<circle id="SVGID_1_" cx="112.1" cy="102.6" r="58.8"/>
	</defs>
	<clipPath id="SVGID_2_">
		<use xlink:href="#SVGID_1_"  style="overflow:visible;"/>
	</clipPath>
	<g class="st11">
		<line class="st12" x1="111.9" y1="38.2" x2="111.9" y2="104.5"/>
		<line class="st13" x1="69.2" y1="60" x2="154.1" y2="144.9"/>
		<line class="st13" x1="153.8" y1="61.2" x2="112" y2="102.9"/>
		<line class="st13" x1="171" y1="103.4" x2="112.1" y2="103.4"/>
		<line class="st14" x1="51.9" y1="102.5" x2="121" y2="102.5"/>
		<line class="st14" x1="111.8" y1="102.9" x2="111.8" y2="162"/>
		<line class="st14" x1="68.4" y1="146" x2="111.8" y2="102.6"/>
	</g>
</g>
</svg>
