<svg id="Layer_1" data-name="Layer 1" xmlns="http://www.w3.org/2000/svg" viewBox="0 0 911.94 2030.29"><defs><style>.cls-1{fill:gray;}.cls-2{fill:#a9a9a9;}.cls-3{fill:#c2bfbf;}</style></defs><path class="cls-1" d="M1150.53,325l54.17,101.76a304.6,304.6,0,0,0,40.92,50.88,1420.94,1420.94,0,0,1,127.14,143.76c91.8,120.54,153.72,254.4,197.94,399.17,26.52,88.44,40.92,179.16,42,270.9,4.44,274.26-89.58,509.75-279.14,705.47a805.87,805.87,0,0,1-99.61,85.14c-18.78,0-27.66-14.4-35.4-27.66a227.92,227.92,0,0,1-27.66-79.62c-6.66-33.18-11-66.36-8.88-100.62v-15.48c-1.52-3.3-18.08-1525.9-11.48-1533.7Z" transform="translate(-700.91 -319.48)"/><path class="cls-2" d="M1150.53,321.66c-2.22-4.44-4.45-1.07-6.67,1.08,1.08,22.21-6.66,42-18.77,60.91-13.33,18.78-31,33.18-48.66,48.66-98.34,85.14-175.74,188-237.72,303-82.48,154.8-125,320.7-137,495.36-5.51,63,19.93,285.3,39.78,349.44,54.18,170.27,151.5,313,277.56,436.79,31,29.82,64.08,57.48,98.34,84.06,10,0,11-8.88,13.32-15.48a303.1,303.1,0,0,0,10-43.14l22.2-165.83Z" transform="translate(-700.91 -319.48)"/><path class="cls-3" d="M1204.7,2149.49c2.23-25.38,14.41-46.44,27.67-67.44-13.33-5.52-23.22-16.5-31-28.74a204.94,204.94,0,0,1-16.5-36.48c-15.48-46.44-18.78-95.16-23.22-142.62v-28.74c-5.52,4.44-6.66,42-6.66,47.58a1101.49,1101.49,0,0,1-19.92,149.28c-3.3,19.92-5.52,39.78-17.76,57.48a22.19,22.19,0,0,0,1.07,7.74c19.92,58.62,25.38,118.32,28.74,179.16v22.21c0,26.51-1.08,20.93,20.94,29.81,8.88,3.3,18.78,4.44,27.66,11,6.66,0,7.74-5.52,7.74-10l-3.3-36.48V2201.57c-1.08-17.76,2.22-35.4,4.44-52Z" transform="translate(-700.91 -319.48)"/></svg>