<svg xmlns="http://www.w3.org/2000/svg" xmlns:xlink="http://www.w3.org/1999/xlink" viewBox="0 0 897.99 1170.37"><defs><style>.cls-1{fill:none;clip-rule:evenodd;}.cls-2{clip-path:url(#clip-path);}.cls-3{fill:url(#linear-gradient);}</style><clipPath id="clip-path"><path class="cls-1" d="M376.76,974.93a260.14,260.14,0,0,0,88.44,195.44,260.15,260.15,0,0,0,0-390.88,260.15,260.15,0,0,0-88.44,195.44M125,599A260.14,260.14,0,0,0,0,773.36,260.15,260.15,0,0,0,338.51,577.92,260.13,260.13,0,0,0,125,599ZM216,277.47A260.16,260.16,0,0,0,2.5,256.34,260.16,260.16,0,0,0,341,451.79,260.13,260.13,0,0,0,216,277.47Zm324-82A260.15,260.15,0,0,0,451.49,0a260.17,260.17,0,0,0,0,390.88A260.15,260.15,0,0,0,539.94,195.44ZM773,435A260.13,260.13,0,0,0,898,260.67,260.16,260.16,0,0,0,559.48,456.11,260.15,260.15,0,0,0,773,435ZM682,756.56A260.18,260.18,0,0,0,895.5,777.69,260.17,260.17,0,0,0,557,582.24,260.19,260.19,0,0,0,682,756.56Z"/></clipPath><linearGradient id="linear-gradient" x1="-3.62" y1="703.34" x2="912.15" y2="464.28" gradientUnits="userSpaceOnUse"><stop offset="0" stop-color="#003f5d"/><stop offset="1" stop-color="#035ca6"/></linearGradient></defs><g id="Layer_2" data-name="Layer 2"><g id="Layer_1-2" data-name="Layer 1"><g class="cls-2"><rect class="cls-3" width="897.99" height="1170.37"/></g></g></g></svg>