<svg id="Layer_1" data-name="Layer 1" xmlns="http://www.w3.org/2000/svg" xmlns:xlink="http://www.w3.org/1999/xlink" viewBox="0 0 2496.29 1528.58"><defs><style>.cls-1{fill:#fff;}.cls-2{fill:#d3d3d3;}.cls-3{fill:gray;}.cls-4,.cls-7{fill:#a9a9a9;}.cls-5{mask:url(#mask);}.cls-6{mask:url(#mask-2);}.cls-7{fill-rule:evenodd;}</style><mask id="mask" x="653.41" y="349.33" width="536.05" height="607.12" maskUnits="userSpaceOnUse"><g transform="translate(-1.29 0)"><g id="c"><path id="a" class="cls-1" d="M937.4,353.23a29.08,29.08,0,0,0-28.78,0L671.07,490.34A28.17,28.17,0,0,0,657,515.16V790a29.39,29.39,0,0,0,14.11,24.82L908.62,951.9a29.08,29.08,0,0,0,28.78,0L1175,814.78A28.19,28.19,0,0,0,1189.07,790V515.17A29.41,29.41,0,0,0,1175,490.34Z"/></g></g></mask><mask id="mask-2" x="653.41" y="303.01" width="543.39" height="660.75" maskUnits="userSpaceOnUse"><g transform="translate(-1.29 0)"><g id="c-2" data-name="c"><path id="a-2" data-name="a" class="cls-1" d="M937.4,353.23a29.08,29.08,0,0,0-28.78,0L671.07,490.34A28.17,28.17,0,0,0,657,515.16V790a29.39,29.39,0,0,0,14.11,24.82L908.62,951.9a29.08,29.08,0,0,0,28.78,0L1175,814.78A28.19,28.19,0,0,0,1189.07,790V515.17A29.41,29.41,0,0,0,1175,490.34Z"/></g></g></mask></defs><path class="cls-2" d="M1235.89,1528.58a49.51,49.51,0,0,1-23.7-6.21l-75-44.57c-11.29-6.21-5.65-8.47-2.26-9.6,15.24-5.07,18.06-6.21,33.86-15.23,1.69-1.13,4-.56,5.64.56L1232,1488c2.25,1.13,5.07,1.13,6.76,0l225.14-130.34c2.26-1.13,3.39-3.39,3.39-6.21V1091.28c0-2.83-1.13-5.08-3.39-6.21L1238.71,955.29c-2.25-1.13-5.07-1.13-6.76,0L1006.8,1085.07c-2.25,1.13-3.38,4-3.38,6.21V1351.4c0,2.26,1.13,5.08,3.38,6.21l61.51,35.55c33.29,16.92,54.17-2.83,54.17-22.58V1113.85a6.86,6.86,0,0,1,6.77-6.78H1158a6.87,6.87,0,0,1,6.78,6.78v256.73c0,44.58-24.27,70.54-66.59,70.54-13,0-23.13,0-51.91-14.11l-59.24-33.85a47.64,47.64,0,0,1-23.7-41.2V1091.84a47.63,47.63,0,0,1,23.7-41.19l225.13-130.34c14.11-7.9,33.3-7.9,47.4,0l225.14,130.34a47.63,47.63,0,0,1,23.7,41.19V1352a47.64,47.64,0,0,1-23.7,41.2L1259.59,1523.5a57.66,57.66,0,0,1-23.69,5.08Zm69.41-178.87c-98.75,0-119.06-45.14-119.06-83.51a6.86,6.86,0,0,1,6.77-6.77h29.34c3.39,0,6.21,2.25,6.21,5.64,4.51,29.9,17.49,44.58,77.3,44.58,47.4,0,67.72-10.73,67.72-36.12,0-14.67-5.65-25.38-79.57-32.72-61.5-6.21-99.87-19.75-99.87-68.84,0-45.71,38.37-72.79,102.69-72.79,72.23,0,107.78,24.83,112.29,79a9.07,9.07,0,0,1-1.69,5.08,7,7,0,0,1-4.52,2.26h-29.34a6.6,6.6,0,0,1-6.2-5.08c-6.77-31-24.27-41.19-70.54-41.19-51.91,0-58.12,18.06-58.12,31.6,0,16.36,7.34,21.44,77.31,30.47,69.4,9,102.13,22,102.13,70.53C1417.59,1321.49,1377,1349.71,1305.3,1349.71Z" transform="translate(-1.29 0)"/><path class="cls-3" d="M537.34,511.22a28.72,28.72,0,0,0-14.67-24.83L283.42,348.71a34.76,34.76,0,0,0-13-3.95h-2.26c-4.51,0-9,1.69-13,3.95L16,486.39A28.71,28.71,0,0,0,1.29,511.22l.57,370.15a14,14,0,0,0,7.33,12.42c4.52,2.82,10.16,2.82,14.11,0l142.2-81.26a28.71,28.71,0,0,0,14.67-24.82V614.48a28.71,28.71,0,0,1,14.67-24.83l60.37-35a27.37,27.37,0,0,1,14.67-4c5.08,0,10.16,1.14,14.11,4l60.37,35A28.69,28.69,0,0,1,359,614.48V787.71a28.71,28.71,0,0,0,14.67,24.82l142.2,81.26a13.78,13.78,0,0,0,14.67,0,14,14,0,0,0,7.34-12.42l-.57-370.15ZM1687.3,1.69c-4.51-2.26-10.15-2.26-14.11,0-4.51,2.83-7.33,7.34-7.33,12.41V380.88a10.16,10.16,0,0,1-15.23,9l-59.82-34.41a29.08,29.08,0,0,0-28.78,0L1322.79,493.73a28.7,28.7,0,0,0-14.67,24.82V794.47a28.72,28.72,0,0,0,14.67,24.84L1562,957.55a29.08,29.08,0,0,0,28.78,0l239.25-138.24a28.72,28.72,0,0,0,14.67-24.84V106.65a29,29,0,0,0-14.67-25.4L1687.31,1.69Zm-22,701.94c0,2.82-1.13,5.08-3.39,6.21l-81.82,47.39a8.35,8.35,0,0,1-7.33,0l-81.82-47.39c-2.26-1.13-3.39-4-3.39-6.21V608.84c0-2.83,1.13-5.08,3.39-6.21l81.82-47.4a8.35,8.35,0,0,1,7.33,0l81.82,47.4c2.26,1.12,3.39,4,3.39,6.21v94.79Zm818.17-97a28.18,28.18,0,0,0,14.11-24.83V514.6a29.38,29.38,0,0,0-14.11-24.82L2245.92,352.1a29.08,29.08,0,0,0-28.78,0L1977.9,490.34a28.69,28.69,0,0,0-14.67,24.83V791.09a28.69,28.69,0,0,0,14.67,24.83l237.55,135.42a28,28,0,0,0,28.21,0l143.88-80.12a14.17,14.17,0,0,0,0-24.83L2147.17,708.15a14.7,14.7,0,0,1-7.33-12.41V609.41a14,14,0,0,1,7.33-12.42l75-42.88a13.74,13.74,0,0,1,14.67,0l75,42.88a14.69,14.69,0,0,1,7.34,12.42v67.71a14,14,0,0,0,7.34,12.41,13.78,13.78,0,0,0,14.67,0l142.19-82.95Z" transform="translate(-1.29 0)"/><path class="cls-4" d="M2227.86,593.6a5.15,5.15,0,0,1,5.64,0l45.71,26.52a5.93,5.93,0,0,1,2.82,5.08v53a5.93,5.93,0,0,1-2.82,5.08l-45.71,26.52a5.15,5.15,0,0,1-5.64,0l-45.7-26.52a5.92,5.92,0,0,1-2.83-5.08v-53a5.92,5.92,0,0,1,2.83-5.08Z" transform="translate(-1.29 0)"/><path id="a-3" data-name="a" class="cls-4" d="M937.4,353.23a29.08,29.08,0,0,0-28.78,0L671.07,490.34A28.17,28.17,0,0,0,657,515.16V790a29.39,29.39,0,0,0,14.11,24.82L908.62,951.9a29.08,29.08,0,0,0,28.78,0L1175,814.78A28.19,28.19,0,0,0,1189.07,790V515.17A29.41,29.41,0,0,0,1175,490.34Z" transform="translate(-1.29 0)"/><g class="cls-5"><path class="cls-4" d="M908.06,353.23,670,490.34c-9,5.08-15.24,14.68-15.24,24.83V790A27.16,27.16,0,0,0,662,808L929.5,349.84c-6.77-1.13-14.67-.57-21.44,3.38Zm23.13,601.5a35.47,35.47,0,0,0,6.78-2.82l238.11-137.12A28.69,28.69,0,0,0,1190.75,790V515.17a28.72,28.72,0,0,0-8.46-19.75L931.2,954.73Z" transform="translate(-1.29 0)"/><path class="cls-4" d="M1175.52,490.34,936.84,353.23a39.58,39.58,0,0,0-7.34-2.82L662,808.59a29.69,29.69,0,0,0,7.91,6.77L908.62,952.48a27.51,27.51,0,0,0,22,2.81L1181.73,496a29.5,29.5,0,0,0-6.21-5.64Z" transform="translate(-1.29 0)"/></g><g class="cls-6"><path class="cls-4" d="M1190.75,790V515.17c0-10.16-6.2-19.75-15.23-24.83L936.83,353.23a25,25,0,0,0-9-3.38l261.25,446.32a11.43,11.43,0,0,0,1.69-6.2ZM669.94,490.34c-9,5.08-15.23,14.68-15.23,24.83V790c0,10.15,6.77,19.75,15.23,24.82L908.62,951.91a26.56,26.56,0,0,0,18.62,3.38L671.63,489.77l-1.68.57Z" transform="translate(-1.29 0)"/><path class="cls-7" d="M900.72,303l-3.38,1.69h4.51Z" transform="translate(-1.29 0)"/><path class="cls-7" d="M1176.08,814.79a32.06,32.06,0,0,0,14.11-18L928.37,349.84c-6.77-1.13-14.11-.57-20.31,3.38l-237,136.56,255.6,466.07a38.8,38.8,0,0,0,10.72-3.38l238.69-137.68Z" transform="translate(-1.29 0)"/><path class="cls-7" d="M1198.09,810.28l-1.69-2.82v3.95l1.69-1.13Z" transform="translate(-1.29 0)"/><path class="cls-7" d="M1176.08,814.79,938,951.91a34.34,34.34,0,0,1-10.73,3.38l4.52,8.46,264.07-152.91v-3.38l-6.77-11.29a26.2,26.2,0,0,1-13,18.62Z" transform="translate(-1.29 0)"/><path class="cls-7" d="M1176.08,814.79,938,951.91a34.34,34.34,0,0,1-10.73,3.38l4.52,8.46,264.07-152.91v-3.38l-6.77-11.29a26.2,26.2,0,0,1-13,18.62Z" transform="translate(-1.29 0)"/></g></svg>