<svg id="Layer_1" data-name="Layer 1" xmlns="http://www.w3.org/2000/svg" viewBox="0 0 2500 1301.37"><defs><style>.cls-1{fill:#d3d3d3;}.cls-2{fill:gray;fill-rule:evenodd;}</style></defs><ellipse class="cls-1" cx="1250" cy="650.68" rx="1250" ry="650.68"/><path class="cls-2" d="M351,1036l137-693.5H804.79c137,8.57,205.47,77.05,205.47,196.92,0,205.48-162.66,325.35-308.22,316.78H548L513.7,1036ZM582.19,727.74,625,470.89H736.3c59.93,0,102.73,25.68,102.73,77.05-8.55,145.56-77,171.24-154.1,179.8H582.19ZM978.44,856.16l137-693.48H1278.1l-34.25,179.78H1398c137,8.57,188.36,77.05,171.24,162.68l-59.93,351H1338L1398,539.38c8.55-42.81,8.55-68.49-51.37-68.49H1218.16l-77.05,385.27ZM1498.29,1036l137-693.5h316.78c137,8.57,205.49,77.05,205.49,196.92,0,205.48-162.68,325.35-308.22,316.78H1695.21L1661,1036Zm231.15-308.22,42.82-256.85h111.3c59.94,0,102.74,25.68,102.74,77.05-8.56,145.56-77,171.24-154.1,179.8H1729.44Z"/></svg>