<?xml version="1.0" encoding="UTF-8"?>
<svg version="1.1" xmlns="http://www.w3.org/2000/svg" width="512" height="512">
<path d="M0 0 C1.50144876 0.61060493 1.50144876 0.61060493 3.03322983 1.2335453 C6.34069039 2.58032136 9.64361661 3.93788231 12.94677734 5.29516602 C15.28524984 6.24905711 17.62409314 7.20203965 19.96328735 8.15415955 C24.82713331 10.13430339 29.68965196 12.11765703 34.5513916 14.10296631 C44.55045893 18.18169296 54.57045934 22.20810376 64.59197807 26.23127747 C67.82906896 27.53092925 71.06573081 28.83164388 74.30226135 30.13269043 C79.79400229 32.34026422 85.28603533 34.54711006 90.77817154 36.75370026 C94.22598891 38.13900421 97.67371942 39.52452412 101.12142944 40.91009521 C124.24106839 50.20121917 147.36214297 59.48869607 170.49755859 68.74047852 C171.31576332 69.06768198 172.13396805 69.39488544 172.97696686 69.73200417 C180.44332022 72.71756287 187.91029419 75.70156083 195.37871552 78.68194294 C210.54263421 84.73364981 225.68595248 90.83136691 240.78271484 97.04907227 C240.78271484 97.70907227 240.78271484 98.36907227 240.78271484 99.04907227 C226.42771484 104.98907227 226.42771484 104.98907227 211.78271484 111.04907227 C211.78271484 161.86907227 211.78271484 212.68907227 211.78271484 265.04907227 C215.41271484 267.02907227 219.04271484 269.00907227 222.78271484 271.04907227 C231.93689393 277.91470658 239.10981017 287.48945169 240.78271484 299.04907227 C241.9617949 314.045384 240.23568734 325.86928077 230.78271484 338.04907227 C226.51062666 342.48209528 222.07046277 345.92255602 216.78271484 349.04907227 C218.5298981 354.46665123 220.28038015 359.88315742 222.03271484 365.29907227 C222.29749634 366.11775787 222.56227783 366.93644348 222.83508301 367.77993774 C225.93264327 377.35100775 229.05690222 386.91223937 232.25146484 396.45141602 C232.52875427 397.27974945 232.8060437 398.10808289 233.09173584 398.96151733 C234.43082483 402.95817153 235.77453944 406.95321239 237.12353516 410.9465332 C237.60893897 412.39085158 238.09429327 413.8351866 238.57958984 415.27954102 C238.80400757 415.93929428 239.02842529 416.59904755 239.25964355 417.27879333 C240.78271484 421.82282776 240.78271484 421.82282776 240.78271484 424.04907227 C236.99436596 425.33658583 233.20406638 426.61816295 229.41186523 427.89428711 C228.12225325 428.32918455 226.83318456 428.76569649 225.54467773 429.20385742 C223.69186954 429.83359801 221.83692595 430.45704483 219.98193359 431.08032227 C218.8664917 431.45737305 217.7510498 431.83442383 216.60180664 432.22290039 C213.78271484 433.04907227 213.78271484 433.04907227 210.78271484 433.04907227 C208.78304621 427.26697571 206.78937505 421.48285995 204.80126953 415.69677734 C204.12388529 413.72810911 203.44485643 411.76000597 202.76416016 409.79248047 C201.78686032 406.96671629 200.81546445 404.13898247 199.84521484 401.31079102 C199.53898193 400.42944992 199.23274902 399.54810883 198.91723633 398.64006042 C198.6369458 397.81943619 198.35665527 396.99881195 198.06787109 396.15332031 C197.69480835 395.07077217 197.69480835 395.07077217 197.31420898 393.96635437 C196.78271484 392.04907227 196.78271484 392.04907227 196.78271484 389.04907227 C196.12271484 389.04907227 195.46271484 389.04907227 194.78271484 389.04907227 C194.67105988 389.59973862 194.55940491 390.15040497 194.44436646 390.71775818 C193.29563792 396.15600012 191.80039527 401.34254635 189.96240234 406.58422852 C189.6988797 407.34835556 189.43535706 408.1124826 189.16384888 408.89976501 C188.33307846 411.30532512 187.49553293 413.70845889 186.65771484 416.11157227 C186.08825172 417.75659791 185.51923731 419.40177896 184.95068359 421.04711914 C183.56653318 425.04958258 182.1763076 429.04988721 180.78271484 433.04907227 C173.89628652 431.65059759 167.36444787 429.69892449 160.72021484 427.42407227 C159.2787207 426.93680664 159.2787207 426.93680664 157.80810547 426.43969727 C155.46486545 425.64695935 153.12343306 424.84921351 150.78271484 424.04907227 C153.0321568 415.30119522 155.79426974 406.75086158 158.66943359 398.19360352 C159.13623543 396.7969379 159.60276808 395.40018228 160.06904602 394.00334167 C161.28453033 390.36444843 162.50361603 386.72677215 163.72351074 383.08935547 C164.97267866 379.36247719 166.21836085 375.63443427 167.46435547 371.90649414 C169.9004395 364.61955637 172.34033747 357.33390342 174.78271484 350.04907227 C172.48939695 347.70269665 170.12574307 345.79244858 167.47021484 343.86157227 C159.17693684 337.43663404 152.26456905 327.63374517 150.78271484 317.04907227 C149.70386726 302.33526562 151.27208495 290.5046653 160.57568359 278.52563477 C166.24455286 272.16446111 172.12324585 268.87880676 179.78271484 265.04907227 C179.78271484 218.51907227 179.78271484 171.98907227 179.78271484 124.04907227 C163.71583984 130.44282227 147.64896484 136.83657227 131.09521484 143.42407227 C125.81086426 145.52476074 120.52651367 147.62544922 115.08203125 149.78979492 C93.02701576 158.5599065 70.98082864 167.34863799 48.98686409 176.27109146 C45.97391067 177.49267368 42.96009958 178.71211093 39.94590759 179.93063354 C38.97903802 180.32150461 38.01216845 180.71237568 37.01599979 181.11509132 C35.10741009 181.88656085 33.19877728 182.65792371 31.29009914 183.42917442 C25.78430236 185.65548321 20.28472325 187.89637425 14.78914642 190.14778328 C11.40614266 191.52987446 8.0178467 192.89858537 4.6279335 194.26362991 C3.07515851 194.89223695 1.52468384 195.52656239 -0.02319717 196.1671257 C-2.12092564 197.03457086 -4.22585203 197.88148373 -6.33374023 198.72387695 C-7.5024617 199.2004071 -8.67118317 199.67693726 -9.87532043 200.16790771 C-17.08980338 202.07012607 -23.1489196 199.10083177 -29.72119141 196.33227539 C-30.65101837 195.9486232 -31.58084534 195.56497101 -32.53884888 195.16969299 C-34.5586521 194.33562056 -36.57701431 193.49805185 -38.59408569 192.65739441 C-44.11486997 190.35759209 -49.64724489 188.08594229 -55.17822266 185.81079102 C-56.33293564 185.33506401 -57.48764862 184.85933701 -58.67735291 184.36919403 C-71.04791959 179.27987952 -83.47202922 174.32783237 -95.90478516 169.39282227 C-98.1668489 168.49394549 -100.42889307 167.59501944 -102.69091797 166.69604492 C-109.5321456 163.97813099 -116.37459763 161.26330826 -123.21728516 158.54907227 C-132.32258677 154.93734263 -141.42716822 151.32381354 -150.52978516 147.70532227 C-151.64168779 147.26334251 -152.75359043 146.82136276 -153.89918709 146.36598969 C-175.46157436 137.78974567 -196.94653186 129.02865995 -218.42095661 120.23500443 C-229.51593722 115.69452122 -240.64161419 111.23250312 -251.77978516 106.79907227 C-253.72451717 106.02320744 -255.66917797 105.24716407 -257.61376953 104.47094727 C-262.14747866 102.66165203 -266.68206462 100.85457542 -271.21728516 99.04907227 C-271.21728516 98.38907227 -271.21728516 97.72907227 -271.21728516 97.04907227 C-237.97197654 83.40234411 -204.63831239 69.9913042 -171.23614502 56.73352051 C-160.89665301 52.62942011 -150.55839531 48.52221355 -140.22119141 44.41235352 C-139.10773283 43.96967133 -137.99427425 43.52698914 -136.84707451 43.07089233 C-111.8336332 33.12297168 -86.86553831 23.06308727 -61.95990467 12.84808254 C-56.62240445 10.6591261 -51.27976839 8.48295613 -45.93481445 6.31225586 C-43.59978999 5.36029851 -41.26722167 4.40230077 -38.93676758 3.43920898 C-35.44907799 1.99953003 -31.95348906 0.58086025 -28.45556641 -0.83374023 C-26.90280754 -1.48332199 -26.90280754 -1.48332199 -25.31867981 -2.14602661 C-23.87110542 -2.72451859 -23.87110542 -2.72451859 -22.39428711 -3.31469727 C-21.5594429 -3.65647003 -20.72459869 -3.9982428 -19.86445618 -4.35037231 C-12.83670773 -5.94473565 -6.37343167 -2.6400995 0 0 Z " fill="white" transform="translate(271.21728515625,41.950927734375)"/>
<path d="M0 0 C16.56422531 6.30503059 33.047853 12.7829287 49.47174072 19.44506836 C53.1070588 20.91838875 56.74436594 22.38673144 60.38232422 23.85351562 C71.60120634 28.3784467 82.81416109 32.9161516 94.00372314 37.51321411 C98.6130814 39.40440379 103.22746285 41.28311964 107.84277344 43.159729 C110.01743267 44.04773373 112.18968072 44.94166811 114.359375 45.84173584 C117.36131979 47.08653715 120.3708203 48.31100306 123.3828125 49.53125 C124.25938507 49.90085846 125.13595764 50.27046692 126.03909302 50.65127563 C134.32067922 53.96034464 140.14225178 52.22359442 148.08203125 48.90625 C148.89321915 48.57530838 149.70440704 48.24436676 150.54017639 47.90339661 C152.3404228 47.1679964 154.13920021 46.42899266 155.93670654 45.68692017 C159.94343802 44.03323034 163.95751314 42.39771031 167.97113037 40.76081848 C170.27018848 39.82303162 172.5688789 38.88434295 174.86724854 37.94487 C191.62661161 31.09649691 208.42631804 24.34761929 225.22177124 17.58837891 C229.93659239 15.69072284 234.65038519 13.79052661 239.3638792 11.88957691 C242.93389051 10.4501473 246.50449259 9.01218781 250.07525444 7.5746212 C251.7636042 6.89458758 253.45172284 6.21397989 255.13960457 5.53278542 C257.4607524 4.59617543 259.78274892 3.66170232 262.10498047 2.7277832 C262.79440137 2.44902092 263.48382227 2.17025864 264.19413471 1.88304901 C268.88587408 0 268.88587408 0 270 0 C270.10209629 6.91922282 270.17175562 13.83824869 270.21972656 20.75805664 C270.23974175 23.10806538 270.26696244 25.45802496 270.30175781 27.80786133 C270.35072124 31.20145867 270.37307059 34.59439296 270.390625 37.98828125 C270.41127014 39.02519608 270.43191528 40.0621109 270.45318604 41.13044739 C270.45792592 56.82224271 262.47370743 69.26192113 251.84765625 80.24609375 C247.86150931 84.10100951 243.73182974 87.12953844 239 90 C237.94039062 90.65613281 236.88078125 91.31226563 235.7890625 91.98828125 C209.69288935 107.75836278 177.51828803 115.04409637 147.20703125 115.203125 C146.30639954 115.21013931 145.40576782 115.21715363 144.47784424 115.22438049 C141.58934465 115.24177716 138.70105005 115.24823213 135.8125 115.25 C134.82579315 115.25067474 133.8390863 115.25134949 132.82247925 115.25204468 C118.35906317 115.23631446 104.21779497 114.90824926 90 112 C89.1145752 111.82307617 88.22915039 111.64615234 87.31689453 111.46386719 C58.8053074 105.60261778 26.69822097 94.39336246 9 69.8125 C2.21628944 59.38110079 -0.31665709 50.81080784 -0.1953125 38.37890625 C-0.1924826 37.27900864 -0.18965271 36.17911102 -0.18673706 35.04588318 C-0.1755898 31.55130897 -0.15049498 28.05699606 -0.125 24.5625 C-0.11496316 22.18555059 -0.10583854 19.80859714 -0.09765625 17.43164062 C-0.07566831 11.6210054 -0.0422451 5.81052138 0 0 Z " fill="white" transform="translate(121,220)"/>
</svg>
