<svg id="Layer_1" data-name="Layer 1" xmlns="http://www.w3.org/2000/svg" viewBox="0 0 1901.22 2283.52"><defs><style>.cls-1{fill:gray;}.cls-2{fill:#fff;}</style></defs><path class="cls-1" d="M1867.68,410.37c-212.16-303.49-631.21-393.44-934.16-200.5l-532,339a609.85,609.85,0,0,0-275.82,408,643.06,643.06,0,0,0,63.24,412.8,610.36,610.36,0,0,0-91.18,228.05,649.85,649.85,0,0,0,111.19,492c212.16,303.49,631.17,393.44,934.12,200.49l532-337.56a611.75,611.75,0,0,0,275.82-408A643.06,643.06,0,0,0,1887.46,1132c11.32-17.19,21.8-35,31.37-53.25a617.68,617.68,0,0,0,25.84-56.14q11.49-28.71,20.09-58.47t14.1-60.15a651,651,0,0,0-111.18-492" transform="translate(-87.65 -108.24)"/><path class="cls-2" d="M881.53,2119a422.8,422.8,0,0,1-453.71-168.24,391.51,391.51,0,0,1-63.27-141.15A390.42,390.42,0,0,1,361.12,1655c.72-4.15,1.56-8.31,2.48-12.43s1.86-8.27,2.93-12.35,2.17-8.19,3.39-12.27,2.48-8.08,3.82-12.08l10-30.61,27.33,20.39q23.51,17.16,48.41,32.29t51,28.09c17.34,8.65,35.11,16.58,53.13,23.71s36.37,13.53,55,19.13l20.39,5.91-1.83,20.39a119.71,119.71,0,0,0,4.27,41.21,117.42,117.42,0,0,0,7.36,19.44,120.37,120.37,0,0,0,10.59,17.87,127.33,127.33,0,0,0,98.27,54.51,125.41,125.41,0,0,0,38.42-3.93c2.9-.76,5.72-1.63,8.54-2.63s5.6-2,8.31-3.27,5.41-2.48,8.08-3.89,5.18-2.86,7.7-4.46l531.23-339a110.28,110.28,0,0,0,18.1-14.18,111.56,111.56,0,0,0,14.75-17.65,110.37,110.37,0,0,0,10.79-20.31,114.82,114.82,0,0,0,6.37-22.07,120.74,120.74,0,0,0,1.71-23.41,117.14,117.14,0,0,0-2.93-23.25,115.93,115.93,0,0,0-7.47-22.22,117.79,117.79,0,0,0-11.74-20.28A127.55,127.55,0,0,0,1252.78,1287c-2.86.76-5.72,1.64-8.54,2.63s-5.56,2.06-8.31,3.24-5.41,2.52-8,3.93-5.22,2.89-7.74,4.49l-204,129.53q-12.46,7.89-25.53,14.86T964,1458.57q-13.54,6-27.52,10.83t-28.24,8.73a422.91,422.91,0,0,1-452.91-168.06,390.92,390.92,0,0,1-66.28-295.74,367,367,0,0,1,165.84-246l532.87-339q12.42-7.89,25.39-14.87c8.65-4.61,17.5-8.91,26.45-12.88s18.11-7.58,27.37-10.82,18.6-6.22,28.09-8.77a422.48,422.48,0,0,1,453.51,168.28A390.61,390.61,0,0,1,1715.48,846c-.8,4.19-1.64,8.39-2.59,12.54s-1.91,8.31-3,12.43-2.17,8.27-3.35,12.35-2.4,8.19-3.74,12.23l-10.17,30.61-27.14-20.39q-23.57-17.32-48.53-32.55t-51.11-28.32a695.06,695.06,0,0,0-108.44-43.15L1437,795.88l1.87-20.39a119.9,119.9,0,0,0-.12-20.93,120,120,0,0,0-21.53-58.24,127.11,127.11,0,0,0-135.85-49.13c-2.9.76-5.76,1.64-8.54,2.59s-5.6,2.09-8.35,3.28-5.41,2.51-8,3.88-5.22,2.9-7.74,4.5L716.48,999.84a109.75,109.75,0,0,0-18,14.18,110.17,110.17,0,0,0-25.54,37.81,111.75,111.75,0,0,0-6.4,22,118.72,118.72,0,0,0,20.39,89.35,127.48,127.48,0,0,0,135.66,50.58c2.86-.8,5.72-1.68,8.54-2.67s5.56-2.1,8.31-3.28,5.41-2.48,8-3.88,5.22-2.86,7.74-4.46l204-129.3c8.34-5.33,16.84-10.36,25.57-15s17.57-9,26.65-13,18.23-7.58,27.56-10.83,18.79-6.17,28.35-8.69a422.55,422.55,0,0,1,453.51,168.06,390.45,390.45,0,0,1,66.9,295.75,367,367,0,0,1-165.85,246l-532.26,339q-12.51,8-25.57,14.94t-26.68,12.92q-13.56,6-27.56,10.91c-9.3,3.27-18.76,6.21-28.28,8.76" transform="translate(-87.65 -108.24)"/></svg>