<svg id="Layer_1" data-name="Layer 1" xmlns="http://www.w3.org/2000/svg" viewBox="0 0 2480.62 2500"><defs><style>.cls-1{fill:gray;}.cls-1,.cls-2{fill-rule:evenodd;}.cls-2{fill:#fff;}</style></defs><path class="cls-1" d="M1239.81,0q483,0,965.91,0c40.41,0,80.43,3.51,119.2,15.33,84.06,25.62,128.56,85.9,146,169,6.92,32.95,8.89,66.52,9,100.1q.77,338.22.91,676.49,0,616.05-.78,1232.08c-.11,57.5-3.17,115.62-31.56,168-31.48,58.08-74.58,104.05-140,124.26-11.83,3.66-24.17,7.81-36.29,7.81-27.93,0-55.11,6.94-82.95,6.94q-945.74-.07-1891.47-.68c-51.28-.09-103.39-3.82-152.1-24.69-9.69-4.16-19.48-7.65-28-14.14-62-47.26-104.13-106.21-113.16-186-3.24-28.76-4.28-57.37-4.28-86.14Q.34,1229.75.67,271.15c0-37.07.41-74.78,11.82-110.27C42.85,66.34,109.31,14.72,207.82,4.23a657.52,657.52,0,0,1,69-4Q758.28-.2,1239.8,0Z" transform="translate(-0.19)"/><path class="cls-2" d="M1248,1590.24c-7,43.16-12,82.17-27.5,118.12-72.58,168.45-196.28,271.1-381.73,291.53C619.59,2024,417.13,1888.75,356.26,1678.63c-22.07-76.14-19.86-153.77-11.85-231.27,8.53-82.81,32.93-161.33,71-235.42,5.46-10.59,5.35-18.59-1.47-28.85-58.49-88-81.18-185.14-72.95-290,4.41-56.06,18-109.69,43.44-159.92C459,586,622.53,461.11,841.61,481.85c192.64,18.22,371.06,184.39,398.91,371.27,1.4,9.38,4,18.59,7.12,32.42,4.61-25.06,7.95-45.73,12.26-66.22,35.88-169.78,202.07-347.43,437.63-349.63,238.76-2.21,415.58,185.05,448.94,359,14.1,73.5,11.65,146.93,0,220.33a785.38,785.38,0,0,1-64.65,211c-6.94,14.82-6.22,25.49,2.66,39.24,51.43,79.69,74.12,167.18,71.21,262.18-6.08,198.22-146.29,376-339.16,422.48-269.29,64.89-475.71-96.16-545.18-291-11.34-31.72-16.69-64.83-23.35-102.64ZM1737.24,1242c2.88-11.21,11.56-17.93,17.8-26.22,67.52-89.73,103-190,95.11-302.81-5.77-82.37-73.52-140.39-155.52-137.32S1550.73,842,1549.57,924.11c-.09,6.72.32,13.46-.1,20.13-5.65,87.51-53.93,135.45-127.1,140.8-13.36,1-26.76,2.17-40.15,2.21q-142.44.32-284.88.09c-41.47,0-82.6,4.47-122.09,16.66-184.37,56.88-291.88,183-327.48,370.88-7.06,37.18-13.4,75.77-1.21,114,17.49,54.77,50.09,95.51,107.81,109.13,59.81,14.12,111.91-1.5,153.31-48.48,26.75-30.38,35.19-66.48,37.19-106.09,5.17-101.89,60.66-152.82,153.2-152.05,142,1.18,283.91.25,425.88.36,25.19,0,25.43.34,25.55,25.27.24,46-1.17,92.12.6,138.1,2.89,75.07,68.94,137.46,145.51,139.66,79,2.26,149.33-56.15,154.47-132.38a1497.91,1497.91,0,0,0-.17-198.41c-3.35-51.11-31-87.54-77.87-108.69-11.24-5.06-23.06-8.85-34.8-13.27ZM847.4,1087.1c30.53,0,55.45-.28,80.36.13,12.34.19,16.92-5.12,16.82-17.22-.41-47.9,2.06-96-1-143.67-4-63-37.51-108.47-96.12-131.43-60.1-23.53-115.1-10.1-161.61,34.29-46.72,44.6-53,99.14-36.6,158.83,15,54.87,50.48,86,106.28,95.45C787.94,1088.93,820.53,1086.32,847.4,1087.1Z" transform="translate(-0.19)"/></svg>